<svg width="500" height="500" viewBox="0 0 500 500" fill="none" xmlns="http://www.w3.org/2000/svg">
<g clip-path="url(#clip0_34_2)">
<rect width="500" height="500" fill="white"/>
<path d="M228.366 146.404L232.428 139.905C233.917 137.603 234.729 135.64 234.865 134.015C235 132.39 235.813 130.427 237.302 128.125C243.124 124.875 247.999 121.287 251.925 117.361C256.123 113.163 261.132 109.711 266.955 107.003C270.881 104.295 273.928 102.467 276.094 101.519C278.531 100.436 280.765 99.1495 282.796 97.6601C284.015 97.1185 285.234 96.5769 286.452 96.0353C287.671 95.4937 288.822 94.9521 289.905 94.4105C292.477 93.1919 295.118 92.2441 297.826 91.5671C300.263 90.8901 302.159 90.1454 303.513 89.333C304.325 88.7914 305.137 88.3852 305.95 88.1144C306.762 87.7082 307.575 87.3697 308.387 87.0989C312.584 85.6095 316.376 84.3909 319.761 83.4431C321.656 82.9015 323.484 82.3599 325.244 81.8183C327.14 81.2767 328.968 80.7351 330.728 80.1935L335.602 78.1625C337.363 77.3501 339.123 77.0793 340.883 77.3501C343.726 77.8917 345.554 78.0271 346.367 77.7563C347.179 77.4855 347.788 77.3501 348.195 77.3501C350.496 77.0793 352.324 77.3501 353.678 78.1625C354.355 78.5687 355.1 78.9749 355.912 79.3811C356.86 79.6519 357.808 79.9227 358.756 80.1935C360.381 80.7351 361.938 81.1413 363.427 81.4121C364.916 81.5475 366.338 81.9537 367.692 82.6307C369.182 83.1723 370.332 83.917 371.145 84.8648L373.785 87.5051C375.139 88.3175 376.155 88.9945 376.832 89.5361L379.878 91.9733C380.961 94.2751 382.112 96.5769 383.331 98.8787C384.549 101.18 385.836 103.482 387.19 105.784C389.898 110.523 391.252 116.074 391.252 122.438C389.627 124.875 388.679 126.094 388.408 126.094C388.002 126.094 387.731 126.365 387.596 126.906C386.107 127.854 384.82 128.802 383.737 129.75C382.654 130.562 381.774 131.307 381.097 131.984L376.629 136.655L370.942 142.342C370.4 142.748 369.452 143.222 368.098 143.764C366.88 144.17 366.203 145.05 366.067 146.404C364.172 147.216 362.412 148.57 360.787 150.466C359.297 152.226 357.537 153.445 355.506 154.122C353.34 156.83 350.361 159.199 346.57 161.23C344.81 162.178 343.117 163.126 341.492 164.074C339.867 165.022 338.31 166.037 336.821 167.12L330.931 170.776C329.983 171.318 329.103 171.995 328.291 172.807C326.801 173.484 325.38 174.161 324.026 174.838C322.672 175.515 321.453 176.192 320.37 176.869C318.203 178.223 315.563 179.442 312.449 180.525C310.96 181.202 309.673 181.879 308.59 182.556C307.507 183.368 305.95 183.639 303.919 183.368L299.857 181.54C298.503 180.863 297.284 181.473 296.201 183.368C292.681 183.91 289.363 183.301 286.249 181.54C283.135 179.78 281.442 177.275 281.172 174.026C277.922 171.318 276.974 167.662 278.328 163.058C278.87 161.027 279.885 158.861 281.375 156.559C282.052 155.476 282.729 154.46 283.406 153.513C284.083 152.429 284.692 151.414 285.234 150.466C286.452 148.3 287.671 145.93 288.889 143.358C289.973 141.056 291.191 138.822 292.545 136.655C296.336 132.593 300.195 128.802 304.122 125.282C308.048 121.761 312.991 119.324 318.948 117.97C320.844 117.428 322.739 116.887 324.635 116.345C326.531 115.804 328.291 115.262 329.916 114.72C330.728 115.262 331.54 115.262 332.353 114.72C333.165 114.043 333.978 114.043 334.79 114.72C335.873 115.533 336.279 116.481 336.009 117.564C335.738 118.918 335.602 120.136 335.602 121.22C333.842 123.657 331.405 124.875 328.291 124.875C325.312 124.875 323.552 126.5 323.01 129.75C315.157 136.52 308.387 144.644 302.7 154.122C303.513 154.663 304.596 155.34 305.95 156.153C307.304 156.965 308.658 157.507 310.012 157.778C312.178 158.319 314.683 157.778 317.526 156.153C320.37 154.528 322.604 153.309 324.229 152.497C331.811 148.977 338.581 144.238 344.539 138.28C346.164 136.926 347.856 135.437 349.616 133.812C351.376 132.187 352.663 130.562 353.475 128.937C354.017 128.26 354.491 127.583 354.897 126.906C355.438 126.229 355.912 125.552 356.319 124.875C357.131 123.521 358.214 122.438 359.568 121.626C359.974 118.376 359.433 115.939 357.943 114.314C356.454 112.689 354.761 111.065 352.866 109.44C350.97 107.68 349.549 105.242 348.601 102.128C347.247 101.587 346.096 100.639 345.148 99.2849C344.2 97.9309 343.049 96.9831 341.695 96.4415C341.425 96.4415 341.018 96.4415 340.477 96.4415C339.935 96.3061 339.19 96.1707 338.243 96.0353L335.196 95.6291C328.426 96.9831 323.146 98.4725 319.354 100.097C315.563 101.722 311.772 103.347 307.981 104.972C298.909 109.846 290.379 115.533 282.39 122.032C281.984 122.303 281.51 122.574 280.968 122.844C280.562 123.115 280.088 123.386 279.547 123.657C278.193 124.469 277.38 125.011 277.11 125.282C276.026 126.094 274.875 127.448 273.657 129.344C273.115 130.156 272.574 130.968 272.032 131.781C271.49 132.593 270.881 133.406 270.204 134.218L265.939 139.702C264.45 141.597 263.434 143.561 262.893 145.592C261.403 146.404 260.32 147.961 259.643 150.263C258.966 152.7 258.018 154.528 256.8 155.747C256.123 158.048 255.446 160.012 254.769 161.637C254.092 163.261 253.415 165.36 252.738 167.933C253.956 170.37 255.039 172.536 255.987 174.432C256.935 176.327 257.68 177.952 258.221 179.306C258.898 180.66 259.508 182.014 260.049 183.368C260.726 184.722 261.403 186.076 262.08 187.43C262.216 190.274 263.096 192.914 264.72 195.351C266.21 197.518 267.632 200.158 268.986 203.272C272.912 209.771 276.365 216.338 279.344 222.973C282.322 229.607 285.775 236.174 289.702 242.673C290.514 244.569 291.327 246.465 292.139 248.36C292.951 250.12 293.696 251.948 294.373 253.844C295.862 257.635 298.097 260.817 301.075 263.39C301.346 264.337 301.617 265.285 301.888 266.233C302.294 267.045 302.768 267.926 303.309 268.873C303.851 269.821 304.325 270.769 304.731 271.717C305.137 272.529 305.544 273.409 305.95 274.357C306.491 275.982 307.101 277.674 307.778 279.435C308.59 281.195 309.47 283.023 310.418 284.918C311.095 286.678 312.043 288.574 313.261 290.605C314.345 292.23 315.157 293.855 315.699 295.479C316.782 297.917 317.662 300.963 318.339 304.619C319.016 308.275 319.219 311.321 318.948 313.758C318.948 317.55 318.677 319.851 318.136 320.664C317.73 321.341 317.12 322.018 316.308 322.695C315.631 323.236 314.886 325.403 314.074 329.194C311.501 333.798 308.658 337.724 305.544 340.974C302.294 344.359 299.451 348.421 297.013 353.16C295.659 355.055 293.899 356.951 291.733 358.847L286.046 363.721C284.286 365.075 282.322 366.294 280.156 367.377C278.26 368.325 276.433 369.679 274.672 371.439C270.069 375.501 265.262 378.412 260.252 380.172C254.836 382.203 250.165 384.573 246.238 387.281C244.614 387.281 242.989 387.484 241.364 387.89C239.739 388.296 238.114 388.77 236.49 389.312C235.136 389.853 233.714 390.395 232.224 390.936C230.735 391.478 229.178 392.02 227.553 392.561C225.793 393.238 224.642 393.78 224.1 394.186C223.559 394.457 222.408 394.998 220.648 395.811C216.857 396.623 212.795 397.097 208.462 397.232C204.129 397.368 199.661 396.894 195.057 395.811C189.912 393.915 185.918 393.103 183.074 393.374C180.231 393.509 177.726 392.426 175.56 390.124C174.206 389.582 173.461 388.905 173.325 388.093C173.19 387.281 172.581 386.468 171.498 385.656L165.811 381.188C164.728 380.375 163.915 379.698 163.374 379.157C159.447 375.907 156.197 372.116 153.625 367.783L151.188 363.721C150.24 362.096 149.698 360.878 149.563 360.065C149.021 358.576 148.954 356.883 149.36 354.988C149.766 353.228 149.427 351.535 148.344 349.91C148.615 348.015 148.615 345.984 148.344 343.817C148.209 342.734 148.141 341.719 148.141 340.771C148.006 339.823 147.938 338.943 147.938 338.13C147.938 335.964 148.277 333.527 148.954 330.819C149.631 328.382 149.563 326.486 148.75 325.132C149.292 321.612 150.104 318.971 151.188 317.211C152.271 315.451 153.625 313.488 155.25 311.321C157.551 310.238 159.65 309.223 161.546 308.275C163.577 307.327 165.337 306.379 166.826 305.431C168.316 304.484 169.873 303.603 171.498 302.791C173.122 301.979 174.747 301.166 176.372 300.354C178.132 299.541 179.283 299 179.825 298.729L182.871 297.104C185.038 295.886 187.61 294.802 190.589 293.855C193.703 292.907 196.547 291.824 199.119 290.605C201.692 289.116 204.197 287.897 206.634 286.949C209.071 286.001 211.576 284.783 214.149 283.293C215.909 283.293 217.466 282.887 218.82 282.075C220.309 281.262 222.002 280.856 223.897 280.856C224.71 280.856 225.387 280.924 225.928 281.059C226.47 281.195 227.282 281.262 228.366 281.262H232.834C234.594 281.262 236.083 281.533 237.302 282.075C238.791 282.616 240.01 283.429 240.958 284.512C242.041 285.595 243.53 286.137 245.426 286.137C247.322 288.032 248.879 290.131 250.097 292.433C251.316 294.735 252.331 297.104 253.144 299.541C254.498 303.062 255.175 306.988 255.175 311.321C255.039 315.248 253.618 318.362 250.91 320.664C248.337 322.83 245.968 325.403 243.801 328.382C240.01 329.736 235.813 332.037 231.209 335.287C228.501 335.016 226.064 335.49 223.897 336.709C221.596 338.063 219.023 339.078 216.18 339.755C214.826 339.891 213.336 339.891 211.711 339.755C209.951 339.484 208.462 339.62 207.243 340.161C206.16 340.297 204.806 340.838 203.181 341.786C201.692 342.599 200.338 342.734 199.119 342.192C197.765 341.651 196.75 340.568 196.073 338.943C195.396 337.318 195.328 335.693 195.87 334.068C197.63 331.225 199.999 329.533 202.978 328.991C205.821 328.449 208.868 327.298 212.118 325.538C215.096 323.913 217.466 322.153 219.226 320.258C220.309 319.174 221.325 318.091 222.273 317.008C223.356 315.925 224.439 314.842 225.522 313.758C227.012 312.134 228.636 310.509 230.397 308.884C232.292 307.259 232.698 305.093 231.615 302.385C229.178 300.489 226.402 299.948 223.288 300.76C220.174 301.572 217.398 302.52 214.961 303.603C212.524 304.687 210.087 305.838 207.649 307.056C205.212 308.139 202.843 309.29 200.541 310.509C198.239 311.727 195.87 312.946 193.432 314.165C191.131 315.248 188.829 316.331 186.527 317.414C184.361 318.227 182.736 319.174 181.653 320.258C180.976 321.07 180.569 322.153 180.434 323.507C180.299 324.861 179.892 326.08 179.215 327.163C177.32 331.36 176.778 335.422 177.591 339.349C178.268 340.838 178.945 342.125 179.622 343.208C180.434 344.427 180.84 345.713 180.84 347.067C182.871 349.098 184.631 351.129 186.121 353.16C186.933 353.701 187.61 354.04 188.152 354.175C188.693 354.311 189.506 354.514 190.589 354.785C192.891 356.274 196.14 357.763 200.338 359.253C201.963 359.794 204.467 360.607 207.852 361.69C211.237 362.773 213.607 363.315 214.961 363.315C216.45 363.586 218.211 363.315 220.242 362.502L225.928 360.471C229.043 358.982 232.157 357.493 235.271 356.003C238.521 354.378 241.77 352.754 245.02 351.129C248.269 349.504 251.451 347.947 254.565 346.458C257.815 344.833 260.997 343.276 264.111 341.786C268.85 338.807 272.506 335.287 275.079 331.225C277.516 328.246 279.547 324.59 281.172 320.258C282.796 315.925 284.015 311.457 284.827 306.853C285.098 305.499 285.234 304.484 285.234 303.807V301.166C283.609 298.052 282.864 296.224 282.999 295.683C283.27 295.006 283.067 294.396 282.39 293.855C280.359 290.334 279.208 288.1 278.937 287.152C278.396 285.528 277.922 284.377 277.516 283.7C276.568 282.21 275.485 280.856 274.266 279.638C273.183 278.284 271.964 277.065 270.61 275.982C267.902 273.68 266.142 270.43 265.33 266.233C263.57 264.744 262.419 262.983 261.877 260.952C261.335 258.921 259.914 257.567 257.612 256.89L256.19 253.438C256.055 252.896 255.852 252.355 255.581 251.813C255.31 251.136 255.039 250.391 254.769 249.579C253.144 247.683 251.925 245.652 251.113 243.486C249.217 241.861 247.863 240.372 247.051 239.018C245.832 236.987 244.614 235.226 243.395 233.737C241.499 231.841 240.01 230.217 238.927 228.863C238.385 228.186 237.844 227.509 237.302 226.832C236.896 226.019 236.557 225.207 236.286 224.394C235.745 222.905 234.729 221.416 233.24 219.926C232.428 218.437 231.412 217.218 230.193 216.27C229.11 215.323 228.23 213.969 227.553 212.208C223.627 207.605 220.783 201.376 219.023 193.523C219.565 190.409 219.023 187.566 217.398 184.993C215.773 182.556 215.367 179.442 216.18 175.65C217.669 171.588 219.158 167.797 220.648 164.277C221.46 162.381 222.205 160.553 222.882 158.793C223.559 157.033 224.168 155.34 224.71 153.716C226.199 153.039 227.012 152.023 227.147 150.669C227.418 149.18 227.824 147.758 228.366 146.404Z" fill="black"/>
</g>
<defs>
<clipPath id="clip0_34_2">
<rect width="500" height="500" fill="white"/>
</clipPath>
</defs>
</svg>
