<svg width="205" height="40" viewBox="0 0 205 40" fill="none" xmlns="http://www.w3.org/2000/svg">
<path d="M10.88 8.64L9.188 14.112H14.84L13.148 8.64C13.052 8.424 12.944 8.268 12.824 8.172C12.728 8.076 12.608 8.028 12.464 8.028H11.564C11.42 8.028 11.288 8.076 11.168 8.172C11.072 8.268 10.976 8.424 10.88 8.64ZM8.828 25.704C8.828 26.16 8.72 26.496 8.504 26.712C8.312 26.904 7.988 27 7.532 27H2.24C1.784 27 1.448 26.904 1.232 26.712C1.04 26.496 0.944 26.16 0.944 25.704V16.2C0.944 15.48 1.052 14.652 1.268 13.716C1.508 12.78 1.868 11.688 2.348 10.44L5.48 2.268C5.624 1.86 5.84 1.56 6.128 1.368C6.44 1.176 6.836 1.08 7.316 1.08H17C17.456 1.08 17.828 1.176 18.116 1.368C18.428 1.56 18.656 1.86 18.8 2.268L21.932 10.44C22.412 11.688 22.76 12.78 22.976 13.716C23.216 14.652 23.336 15.48 23.336 16.2V25.704C23.336 26.16 23.228 26.496 23.012 26.712C22.82 26.904 22.496 27 22.04 27H16.604C16.124 27 15.764 26.904 15.524 26.712C15.308 26.496 15.2 26.16 15.2 25.704V20.664H8.828V25.704ZM45.0249 27H36.2409C33.2409 27 31.0089 26.4 29.5449 25.2C28.1049 24 27.3849 22.152 27.3849 19.656V8.46C27.3849 5.964 28.1049 4.116 29.5449 2.916C31.0089 1.692 33.2409 1.08 36.2409 1.08H45.0249C45.4809 1.08 45.8049 1.188 45.9969 1.404C46.2129 1.596 46.3209 1.92 46.3209 2.376V6.732C46.3209 7.188 46.2129 7.524 45.9969 7.74C45.8049 7.932 45.4809 8.028 45.0249 8.028H37.7889C37.0449 8.028 36.4929 8.184 36.1329 8.496C35.7729 8.784 35.5929 9.228 35.5929 9.828V18.396C35.5929 18.996 35.7729 19.44 36.1329 19.728C36.4929 19.992 37.0449 20.124 37.7889 20.124H45.0249C45.4809 20.124 45.8049 20.232 45.9969 20.448C46.2129 20.64 46.3209 20.964 46.3209 21.42V25.704C46.3209 26.16 46.2129 26.496 45.9969 26.712C45.8049 26.904 45.4809 27 45.0249 27ZM68.3863 27H51.6823C51.2263 27 50.8903 26.904 50.6743 26.712C50.4823 26.496 50.3863 26.16 50.3863 25.704V2.376C50.3863 1.92 50.4823 1.596 50.6743 1.404C50.8903 1.188 51.2263 1.08 51.6823 1.08H68.3863C68.8423 1.08 69.1663 1.188 69.3583 1.404C69.5743 1.596 69.6823 1.92 69.6823 2.376V6.588C69.6823 7.044 69.5743 7.38 69.3583 7.596C69.1663 7.788 68.8423 7.884 68.3863 7.884H58.4503V10.656H65.4703C65.9263 10.656 66.2503 10.764 66.4423 10.98C66.6583 11.172 66.7663 11.496 66.7663 11.952V15.804C66.7663 16.26 66.6583 16.596 66.4423 16.812C66.2503 17.004 65.9263 17.1 65.4703 17.1H58.4503V20.196H68.3863C68.8423 20.196 69.1663 20.304 69.3583 20.52C69.5743 20.712 69.6823 21.036 69.6823 21.492V25.704C69.6823 26.16 69.5743 26.496 69.3583 26.712C69.1663 26.904 68.8423 27 68.3863 27ZM85.965 27H74.589C74.133 27 73.797 26.904 73.581 26.712C73.389 26.496 73.293 26.16 73.293 25.704V21.492C73.293 21.036 73.389 20.712 73.581 20.52C73.797 20.304 74.133 20.196 74.589 20.196H84.273C84.585 20.196 84.813 20.1 84.957 19.908C85.125 19.692 85.209 19.44 85.209 19.152C85.209 18.744 85.125 18.444 84.957 18.252C84.813 18.06 84.585 17.952 84.273 17.928L78.873 17.172C77.193 16.932 75.837 16.38 74.805 15.516C73.797 14.652 73.293 13.212 73.293 11.196V7.416C73.293 5.376 73.953 3.816 75.273 2.736C76.593 1.632 78.417 1.08 80.745 1.08H90.825C91.281 1.08 91.605 1.188 91.797 1.404C92.013 1.596 92.121 1.92 92.121 2.376V6.66C92.121 7.116 92.013 7.452 91.797 7.668C91.605 7.86 91.281 7.956 90.825 7.956H82.437C82.125 7.956 81.885 8.064 81.717 8.28C81.549 8.472 81.465 8.724 81.465 9.036C81.465 9.348 81.549 9.612 81.717 9.828C81.885 10.044 82.125 10.164 82.437 10.188L87.801 10.908C89.481 11.148 90.837 11.7 91.869 12.564C92.901 13.428 93.417 14.868 93.417 16.884V20.664C93.417 22.704 92.745 24.276 91.401 25.38C90.081 26.46 88.269 27 85.965 27ZM109.566 6.60938L109.918 6.04688C110.047 5.84766 110.117 5.67773 110.129 5.53711C110.141 5.39648 110.211 5.22656 110.34 5.02734C110.844 4.74609 111.266 4.43555 111.605 4.0957C111.969 3.73242 112.402 3.43359 112.906 3.19922C113.246 2.96484 113.51 2.80664 113.697 2.72461C113.908 2.63086 114.102 2.51953 114.277 2.39062C114.383 2.34375 114.488 2.29688 114.594 2.25C114.699 2.20312 114.799 2.15625 114.893 2.10938C115.115 2.00391 115.344 1.92188 115.578 1.86328C115.789 1.80469 115.953 1.74023 116.07 1.66992C116.141 1.62305 116.211 1.58789 116.281 1.56445C116.352 1.5293 116.422 1.5 116.492 1.47656C116.855 1.34766 117.184 1.24219 117.477 1.16016C117.641 1.11328 117.799 1.06641 117.951 1.01953C118.115 0.972656 118.273 0.925781 118.426 0.878906L118.848 0.703125C119 0.632812 119.152 0.609375 119.305 0.632812C119.551 0.679688 119.709 0.691406 119.779 0.667969C119.85 0.644531 119.902 0.632812 119.938 0.632812C120.137 0.609375 120.295 0.632812 120.412 0.703125C120.471 0.738281 120.535 0.773438 120.605 0.808594C120.688 0.832031 120.77 0.855469 120.852 0.878906C120.992 0.925781 121.127 0.960938 121.256 0.984375C121.385 0.996094 121.508 1.03125 121.625 1.08984C121.754 1.13672 121.854 1.20117 121.924 1.2832L122.152 1.51172C122.27 1.58203 122.357 1.64062 122.416 1.6875L122.68 1.89844C122.773 2.09766 122.873 2.29688 122.979 2.49609C123.084 2.69531 123.195 2.89453 123.312 3.09375C123.547 3.50391 123.664 3.98438 123.664 4.53516C123.523 4.74609 123.441 4.85156 123.418 4.85156C123.383 4.85156 123.359 4.875 123.348 4.92188C123.219 5.00391 123.107 5.08594 123.014 5.16797C122.92 5.23828 122.844 5.30273 122.785 5.36133L122.398 5.76562L121.906 6.25781C121.859 6.29297 121.777 6.33398 121.66 6.38086C121.555 6.41602 121.496 6.49219 121.484 6.60938C121.32 6.67969 121.168 6.79688 121.027 6.96094C120.898 7.11328 120.746 7.21875 120.57 7.27734C120.383 7.51172 120.125 7.7168 119.797 7.89258C119.645 7.97461 119.498 8.05664 119.357 8.13867C119.217 8.2207 119.082 8.30859 118.953 8.40234L118.443 8.71875C118.361 8.76562 118.285 8.82422 118.215 8.89453C118.086 8.95312 117.963 9.01172 117.846 9.07031C117.729 9.12891 117.623 9.1875 117.529 9.24609C117.342 9.36328 117.113 9.46875 116.844 9.5625C116.715 9.62109 116.604 9.67969 116.51 9.73828C116.416 9.80859 116.281 9.83203 116.105 9.80859L115.754 9.65039C115.637 9.5918 115.531 9.64453 115.438 9.80859C115.133 9.85547 114.846 9.80273 114.576 9.65039C114.307 9.49805 114.16 9.28125 114.137 9C113.855 8.76562 113.773 8.44922 113.891 8.05078C113.938 7.875 114.025 7.6875 114.154 7.48828C114.213 7.39453 114.271 7.30664 114.33 7.22461C114.389 7.13086 114.441 7.04297 114.488 6.96094C114.594 6.77344 114.699 6.56836 114.805 6.3457C114.898 6.14648 115.004 5.95312 115.121 5.76562C115.449 5.41406 115.783 5.08594 116.123 4.78125C116.463 4.47656 116.891 4.26562 117.406 4.14844C117.57 4.10156 117.734 4.05469 117.898 4.00781C118.062 3.96094 118.215 3.91406 118.355 3.86719C118.426 3.91406 118.496 3.91406 118.566 3.86719C118.637 3.80859 118.707 3.80859 118.777 3.86719C118.871 3.9375 118.906 4.01953 118.883 4.11328C118.859 4.23047 118.848 4.33594 118.848 4.42969C118.695 4.64062 118.484 4.74609 118.215 4.74609C117.957 4.74609 117.805 4.88672 117.758 5.16797C117.078 5.75391 116.492 6.45703 116 7.27734C116.07 7.32422 116.164 7.38281 116.281 7.45312C116.398 7.52344 116.516 7.57031 116.633 7.59375C116.82 7.64062 117.037 7.59375 117.283 7.45312C117.529 7.3125 117.723 7.20703 117.863 7.13672C118.52 6.83203 119.105 6.42188 119.621 5.90625C119.762 5.78906 119.908 5.66016 120.061 5.51953C120.213 5.37891 120.324 5.23828 120.395 5.09766C120.441 5.03906 120.482 4.98047 120.518 4.92188C120.564 4.86328 120.605 4.80469 120.641 4.74609C120.711 4.62891 120.805 4.53516 120.922 4.46484C120.957 4.18359 120.91 3.97266 120.781 3.83203C120.652 3.69141 120.506 3.55078 120.342 3.41016C120.178 3.25781 120.055 3.04688 119.973 2.77734C119.855 2.73047 119.756 2.64844 119.674 2.53125C119.592 2.41406 119.492 2.33203 119.375 2.28516C119.352 2.28516 119.316 2.28516 119.27 2.28516C119.223 2.27344 119.158 2.26172 119.076 2.25L118.812 2.21484C118.227 2.33203 117.77 2.46094 117.441 2.60156C117.113 2.74219 116.785 2.88281 116.457 3.02344C115.672 3.44531 114.934 3.9375 114.242 4.5C114.207 4.52344 114.166 4.54688 114.119 4.57031C114.084 4.59375 114.043 4.61719 113.996 4.64062C113.879 4.71094 113.809 4.75781 113.785 4.78125C113.691 4.85156 113.592 4.96875 113.486 5.13281C113.439 5.20312 113.393 5.27344 113.346 5.34375C113.299 5.41406 113.246 5.48438 113.188 5.55469L112.818 6.0293C112.689 6.19336 112.602 6.36328 112.555 6.53906C112.426 6.60938 112.332 6.74414 112.273 6.94336C112.215 7.1543 112.133 7.3125 112.027 7.41797C111.969 7.61719 111.91 7.78711 111.852 7.92773C111.793 8.06836 111.734 8.25 111.676 8.47266C111.781 8.68359 111.875 8.87109 111.957 9.03516C112.039 9.19922 112.104 9.33984 112.15 9.45703C112.209 9.57422 112.262 9.69141 112.309 9.80859C112.367 9.92578 112.426 10.043 112.484 10.1602C112.496 10.4062 112.572 10.6348 112.713 10.8457C112.842 11.0332 112.965 11.2617 113.082 11.5312C113.422 12.0938 113.721 12.6621 113.979 13.2363C114.236 13.8105 114.535 14.3789 114.875 14.9414C114.945 15.1055 115.016 15.2695 115.086 15.4336C115.156 15.5859 115.221 15.7441 115.279 15.9082C115.408 16.2363 115.602 16.5117 115.859 16.7344C115.883 16.8164 115.906 16.8984 115.93 16.9805C115.965 17.0508 116.006 17.127 116.053 17.209C116.1 17.291 116.141 17.373 116.176 17.4551C116.211 17.5254 116.246 17.6016 116.281 17.6836C116.328 17.8242 116.381 17.9707 116.439 18.123C116.51 18.2754 116.586 18.4336 116.668 18.5977C116.727 18.75 116.809 18.9141 116.914 19.0898C117.008 19.2305 117.078 19.3711 117.125 19.5117C117.219 19.7227 117.295 19.9863 117.354 20.3027C117.412 20.6191 117.43 20.8828 117.406 21.0938C117.406 21.4219 117.383 21.6211 117.336 21.6914C117.301 21.75 117.248 21.8086 117.178 21.8672C117.119 21.9141 117.055 22.1016 116.984 22.4297C116.762 22.8281 116.516 23.168 116.246 23.4492C115.965 23.7422 115.719 24.0938 115.508 24.5039C115.391 24.668 115.238 24.832 115.051 24.9961L114.559 25.418C114.406 25.5352 114.236 25.6406 114.049 25.7344C113.885 25.8164 113.727 25.9336 113.574 26.0859C113.176 26.4375 112.76 26.6895 112.326 26.8418C111.857 27.0176 111.453 27.2227 111.113 27.457C110.973 27.457 110.832 27.4746 110.691 27.5098C110.551 27.5449 110.41 27.5859 110.27 27.6328C110.152 27.6797 110.029 27.7266 109.9 27.7734C109.771 27.8203 109.637 27.8672 109.496 27.9141C109.344 27.9727 109.244 28.0195 109.197 28.0547C109.15 28.0781 109.051 28.125 108.898 28.1953C108.57 28.2656 108.219 28.3066 107.844 28.3184C107.469 28.3301 107.082 28.2891 106.684 28.1953C106.238 28.0312 105.893 27.9609 105.646 27.9844C105.4 27.9961 105.184 27.9023 104.996 27.7031C104.879 27.6562 104.814 27.5977 104.803 27.5273C104.791 27.457 104.738 27.3867 104.645 27.3164L104.152 26.9297C104.059 26.8594 103.988 26.8008 103.941 26.7539C103.602 26.4727 103.32 26.1445 103.098 25.7695L102.887 25.418C102.805 25.2773 102.758 25.1719 102.746 25.1016C102.699 24.9727 102.693 24.8262 102.729 24.6621C102.764 24.5098 102.734 24.3633 102.641 24.2227C102.664 24.0586 102.664 23.8828 102.641 23.6953C102.629 23.6016 102.623 23.5137 102.623 23.4316C102.611 23.3496 102.605 23.2734 102.605 23.2031C102.605 23.0156 102.635 22.8047 102.693 22.5703C102.752 22.3594 102.746 22.1953 102.676 22.0781C102.723 21.7734 102.793 21.5449 102.887 21.3926C102.98 21.2402 103.098 21.0703 103.238 20.8828C103.438 20.7891 103.619 20.7012 103.783 20.6191C103.959 20.5371 104.111 20.4551 104.24 20.373C104.369 20.291 104.504 20.2148 104.645 20.1445C104.785 20.0742 104.926 20.0039 105.066 19.9336C105.219 19.8633 105.318 19.8164 105.365 19.793L105.629 19.6523C105.816 19.5469 106.039 19.4531 106.297 19.3711C106.566 19.2891 106.812 19.1953 107.035 19.0898C107.258 18.9609 107.475 18.8555 107.686 18.7734C107.896 18.6914 108.113 18.5859 108.336 18.457C108.488 18.457 108.623 18.4219 108.74 18.3516C108.869 18.2812 109.016 18.2461 109.18 18.2461C109.25 18.2461 109.309 18.252 109.355 18.2637C109.402 18.2754 109.473 18.2812 109.566 18.2812H109.953C110.105 18.2812 110.234 18.3047 110.34 18.3516C110.469 18.3984 110.574 18.4688 110.656 18.5625C110.75 18.6562 110.879 18.7031 111.043 18.7031C111.207 18.8672 111.342 19.0488 111.447 19.248C111.553 19.4473 111.641 19.6523 111.711 19.8633C111.828 20.168 111.887 20.5078 111.887 20.8828C111.875 21.2227 111.752 21.4922 111.518 21.6914C111.295 21.8789 111.09 22.1016 110.902 22.3594C110.574 22.4766 110.211 22.6758 109.812 22.957C109.578 22.9336 109.367 22.9746 109.18 23.0801C108.98 23.1973 108.758 23.2852 108.512 23.3438C108.395 23.3555 108.266 23.3555 108.125 23.3438C107.973 23.3203 107.844 23.332 107.738 23.3789C107.645 23.3906 107.527 23.4375 107.387 23.5195C107.258 23.5898 107.141 23.6016 107.035 23.5547C106.918 23.5078 106.83 23.4141 106.771 23.2734C106.713 23.1328 106.707 22.9922 106.754 22.8516C106.906 22.6055 107.111 22.459 107.369 22.4121C107.615 22.3652 107.879 22.2656 108.16 22.1133C108.418 21.9727 108.623 21.8203 108.775 21.6562C108.869 21.5625 108.957 21.4688 109.039 21.375C109.133 21.2812 109.227 21.1875 109.32 21.0938C109.449 20.9531 109.59 20.8125 109.742 20.6719C109.906 20.5312 109.941 20.3438 109.848 20.1094C109.637 19.9453 109.396 19.8984 109.127 19.9688C108.857 20.0391 108.617 20.1211 108.406 20.2148C108.195 20.3086 107.984 20.4082 107.773 20.5137C107.562 20.6074 107.357 20.707 107.158 20.8125C106.959 20.918 106.754 21.0234 106.543 21.1289C106.344 21.2227 106.145 21.3164 105.945 21.4102C105.758 21.4805 105.617 21.5625 105.523 21.6562C105.465 21.7266 105.43 21.8203 105.418 21.9375C105.406 22.0547 105.371 22.1602 105.312 22.2539C105.148 22.6172 105.102 22.9688 105.172 23.3086C105.23 23.4375 105.289 23.5488 105.348 23.6426C105.418 23.748 105.453 23.8594 105.453 23.9766C105.629 24.1523 105.781 24.3281 105.91 24.5039C105.98 24.5508 106.039 24.5801 106.086 24.5918C106.133 24.6035 106.203 24.6211 106.297 24.6445C106.496 24.7734 106.777 24.9023 107.141 25.0312C107.281 25.0781 107.498 25.1484 107.791 25.2422C108.084 25.3359 108.289 25.3828 108.406 25.3828C108.535 25.4062 108.688 25.3828 108.863 25.3125L109.355 25.1367C109.625 25.0078 109.895 24.8789 110.164 24.75C110.445 24.6094 110.727 24.4688 111.008 24.3281C111.289 24.1875 111.564 24.0527 111.834 23.9238C112.115 23.7832 112.391 23.6484 112.66 23.5195C113.07 23.2617 113.387 22.957 113.609 22.6055C113.82 22.3477 113.996 22.0312 114.137 21.6562C114.277 21.2812 114.383 20.8945 114.453 20.4961C114.477 20.3789 114.488 20.291 114.488 20.2324V20.0039C114.348 19.7344 114.283 19.5762 114.295 19.5293C114.318 19.4707 114.301 19.418 114.242 19.3711C114.066 19.0664 113.967 18.873 113.943 18.791C113.896 18.6504 113.855 18.5508 113.82 18.4922C113.738 18.3633 113.645 18.2461 113.539 18.1406C113.445 18.0234 113.34 17.918 113.223 17.8242C112.988 17.625 112.836 17.3438 112.766 16.9805C112.613 16.8516 112.514 16.6992 112.467 16.5234C112.42 16.3477 112.297 16.2305 112.098 16.1719L111.975 15.873C111.963 15.8262 111.945 15.7793 111.922 15.7324C111.898 15.6738 111.875 15.6094 111.852 15.5391C111.711 15.375 111.605 15.1992 111.535 15.0117C111.371 14.8711 111.254 14.7422 111.184 14.625C111.078 14.4492 110.973 14.2969 110.867 14.168C110.703 14.0039 110.574 13.8633 110.48 13.7461C110.434 13.6875 110.387 13.6289 110.34 13.5703C110.305 13.5 110.275 13.4297 110.252 13.3594C110.205 13.2305 110.117 13.1016 109.988 12.9727C109.918 12.8438 109.83 12.7383 109.725 12.6562C109.631 12.5742 109.555 12.457 109.496 12.3047C109.156 11.9062 108.91 11.3672 108.758 10.6875C108.805 10.418 108.758 10.1719 108.617 9.94922C108.477 9.73828 108.441 9.46875 108.512 9.14062C108.641 8.78906 108.77 8.46094 108.898 8.15625C108.969 7.99219 109.033 7.83398 109.092 7.68164C109.15 7.5293 109.203 7.38281 109.25 7.24219C109.379 7.18359 109.449 7.0957 109.461 6.97852C109.484 6.84961 109.52 6.72656 109.566 6.60938ZM122.68 22.6758C122.867 22.5586 123.02 22.4062 123.137 22.2188C123.195 22.125 123.26 22.0312 123.33 21.9375C123.4 21.8438 123.477 21.75 123.559 21.6562C123.863 21.3047 124.191 21.0117 124.543 20.7773C124.707 20.5312 124.912 20.3496 125.158 20.2324C125.404 20.1035 125.598 19.9102 125.738 19.6523C125.773 19.6055 125.814 19.5352 125.861 19.4414C125.908 19.3477 125.949 19.2773 125.984 19.2305C126.43 18.6094 126.91 18.0938 127.426 17.6836C127.496 17.625 127.566 17.5664 127.637 17.5078C127.707 17.4492 127.771 17.3906 127.83 17.332C127.924 17.2383 128.082 17.1211 128.305 16.9805C128.41 16.9219 128.516 16.8574 128.621 16.7871C128.727 16.7051 128.826 16.6172 128.92 16.5234C129.107 16.3359 129.324 16.1953 129.57 16.1016C129.723 16.0312 129.875 15.9785 130.027 15.9434C130.098 15.9199 130.168 15.9023 130.238 15.8906C130.32 15.8672 130.402 15.8438 130.484 15.8203C130.648 15.7734 130.795 15.7324 130.924 15.6973C131.053 15.6621 131.199 15.668 131.363 15.7148C131.738 15.8672 132.02 16.1836 132.207 16.6641C132.277 16.8398 132.236 17.209 132.084 17.7715C131.943 18.334 131.773 18.9199 131.574 19.5293C131.375 20.127 131.234 20.5898 131.152 20.918C131.105 21.0938 131.094 21.1934 131.117 21.2168C131.141 21.2402 131.152 21.2695 131.152 21.3047C131.105 21.4219 131.07 21.5273 131.047 21.6211C131.023 21.7148 131 21.8203 130.977 21.9375C130.93 22.125 130.895 22.377 130.871 22.6934C130.848 23.0098 130.859 23.2617 130.906 23.4492C131.141 23.4375 131.275 23.4141 131.311 23.3789C131.334 23.3555 131.363 23.3438 131.398 23.3438C131.492 23.3203 131.568 23.3145 131.627 23.3262C131.686 23.3379 131.762 23.332 131.855 23.3086C132.336 23.1797 132.77 22.9219 133.156 22.5352C133.367 22.4414 133.566 22.3477 133.754 22.2539C133.953 22.1602 134.141 22.0664 134.316 21.9727C134.645 21.7383 134.908 21.5684 135.107 21.4629C135.307 21.3574 135.605 21.2109 136.004 21.0234C136.156 20.8477 136.361 20.7012 136.619 20.584C136.854 20.4785 137.082 20.332 137.305 20.1445C137.375 20.0742 137.434 20.0098 137.48 19.9512C137.551 19.8574 137.621 19.8398 137.691 19.8984C137.809 20.0156 137.885 20.1387 137.92 20.2676C137.955 20.3965 137.961 20.4844 137.938 20.5312C137.762 20.707 137.662 20.8477 137.639 20.9531C137.615 21.0586 137.586 21.1289 137.551 21.1641C137.434 21.2812 137.258 21.3867 137.023 21.4805C136.824 21.5625 136.701 21.6387 136.654 21.709C136.607 21.7793 136.566 21.832 136.531 21.8672C136.461 21.9375 136.396 21.9902 136.338 22.0254C136.279 22.0605 136.215 22.1133 136.145 22.1836C136.098 22.2539 136.033 22.2949 135.951 22.3066L135.723 22.3594C135.582 22.4766 135.465 22.582 135.371 22.6758C135.277 22.7695 135.172 22.875 135.055 22.9922C134.879 23.168 134.762 23.3027 134.703 23.3965C134.656 23.4785 134.527 23.5898 134.316 23.7305L133.613 24.1523C133.285 24.3164 132.957 24.5156 132.629 24.75C132.301 24.9844 131.973 25.2188 131.645 25.4531C131.434 25.582 131.193 25.7051 130.924 25.8223C130.678 25.9277 130.449 26.0508 130.238 26.1914C130.133 26.1914 130.068 26.1855 130.045 26.1738C130.01 26.1504 129.945 26.168 129.852 26.2266C129.734 26.168 129.617 26.1621 129.5 26.209C129.371 26.2676 129.254 26.2734 129.148 26.2266C129.031 26.1328 128.932 26.0566 128.85 25.998C128.779 25.9395 128.721 25.8984 128.674 25.875C128.604 25.8281 128.539 25.7695 128.48 25.6992C128.434 25.582 128.416 25.4531 128.428 25.3125C128.439 25.1719 128.41 25.0547 128.34 24.9609C128.34 24.4453 128.357 23.9531 128.393 23.4844C128.428 23.0156 128.504 22.5234 128.621 22.0078C128.645 21.8438 128.703 21.5625 128.797 21.1641C128.891 20.7539 128.967 20.3613 129.025 19.9863C129.084 19.6113 129.066 19.3945 128.973 19.3359C128.715 19.4766 128.451 19.6875 128.182 19.9688C128.053 20.1094 127.924 20.2383 127.795 20.3555C127.666 20.4727 127.543 20.5781 127.426 20.6719L126.881 21.0586C126.799 21.1172 126.711 21.1816 126.617 21.252C126.523 21.3105 126.43 21.375 126.336 21.4453C126.172 21.5625 126.031 21.6797 125.914 21.7969C125.797 21.9141 125.668 22.0547 125.527 22.2188C125.445 22.3008 125.363 22.3828 125.281 22.4648C125.211 22.5352 125.141 22.6113 125.07 22.6934C124.93 22.8457 124.766 22.9922 124.578 23.1328C124.461 23.25 124.373 23.3262 124.314 23.3613C124.256 23.3965 124.18 23.4609 124.086 23.5547L123.752 23.8887C123.646 23.9941 123.512 24.082 123.348 24.1523C122.973 24.6562 122.551 25.1426 122.082 25.6113C121.625 26.0801 121.262 26.5547 120.992 27.0352C120.711 27.2695 120.412 27.4746 120.096 27.6504C119.779 27.8262 119.398 27.8438 118.953 27.7031C118.719 27.5625 118.566 27.4453 118.496 27.3516C118.426 27.2695 118.344 27.1992 118.25 27.1406C118.273 26.8828 118.297 26.6367 118.32 26.4023C118.344 26.168 118.414 25.9219 118.531 25.6641L118.742 25.3125C118.859 25.1133 118.936 24.8789 118.971 24.6094C119.006 24.3281 119.082 24.082 119.199 23.8711C119.34 23.6367 119.428 23.4434 119.463 23.291C119.498 23.1504 119.551 23.0156 119.621 22.8867C119.68 22.7461 119.744 22.6348 119.814 22.5527C119.885 22.4707 119.949 22.3594 120.008 22.2188C120.066 22.0898 120.148 21.9551 120.254 21.8145C120.359 21.6738 120.441 21.5391 120.5 21.4102C120.641 20.9062 120.828 20.3906 121.062 19.8633C121.109 19.6992 121.156 19.541 121.203 19.3887C121.25 19.2363 121.309 19.0898 121.379 18.9492C121.438 18.8203 121.496 18.6914 121.555 18.5625C121.613 18.4336 121.672 18.3105 121.73 18.1934C121.789 18.0645 121.848 17.9414 121.906 17.8242C121.965 17.6953 122.023 17.5664 122.082 17.4375C122.152 17.2969 122.217 17.1738 122.275 17.0684C122.334 16.9629 122.41 16.8516 122.504 16.7344C122.539 16.6758 122.574 16.6172 122.609 16.5586C122.645 16.5 122.674 16.4414 122.697 16.3828C122.721 16.3242 122.75 16.2656 122.785 16.207C122.82 16.1484 122.855 16.0898 122.891 16.0312C122.926 15.9727 122.961 15.9141 122.996 15.8555C123.031 15.7852 123.061 15.709 123.084 15.627C123.131 15.4746 123.219 15.3281 123.348 15.1875C123.43 15.0938 123.5 15.0059 123.559 14.9238C123.629 14.8301 123.688 14.7422 123.734 14.6602C123.816 14.5078 123.969 14.4023 124.191 14.3438C124.391 14.4375 124.596 14.4023 124.807 14.2383C125.029 14.0625 125.211 14.0742 125.352 14.2734C125.68 14.4844 125.902 14.6484 126.02 14.7656C126.16 14.8945 126.254 15.0234 126.301 15.1523C126.418 15.3633 126.43 15.5801 126.336 15.8027C126.242 16.0254 126.078 16.2188 125.844 16.3828C125.762 16.7461 125.598 17.1211 125.352 17.5078C125.234 17.6836 125.123 17.8594 125.018 18.0352C124.912 18.1992 124.812 18.3633 124.719 18.5273L124.438 19.2305C124.297 19.5586 124.15 19.8867 123.998 20.2148C123.846 20.543 123.676 20.8594 123.488 21.1641C123.336 21.4805 123.219 21.6855 123.137 21.7793C123.066 21.873 123.002 21.9668 122.943 22.0605C122.896 22.1426 122.809 22.3477 122.68 22.6758ZM143 9.38672L143.352 9.49219C143.398 9.55078 143.422 9.62109 143.422 9.70312C143.422 9.76172 143.457 9.82031 143.527 9.87891C143.48 10.0898 143.439 10.3066 143.404 10.5293C143.369 10.752 143.352 10.9688 143.352 11.1797C143.352 11.2617 143.381 11.3438 143.439 11.4258C143.498 11.5078 143.527 11.5781 143.527 11.6367C143.41 11.9062 143.322 12.0703 143.264 12.1289C143.205 12.1875 143.176 12.2461 143.176 12.3047C143.059 12.3516 142.971 12.4219 142.912 12.5156C142.854 12.6094 142.754 12.6562 142.613 12.6562C142.566 12.7266 142.514 12.7793 142.455 12.8145C142.385 12.8613 142.344 12.9258 142.332 13.0078C141.945 13.1719 141.523 13.1602 141.066 12.9727C140.938 12.75 140.773 12.5977 140.574 12.5156C140.27 12.0703 140.258 11.543 140.539 10.9336C140.586 10.8164 140.639 10.6934 140.697 10.5645C140.756 10.4355 140.809 10.3477 140.855 10.3008C141.102 10.125 141.289 10.0078 141.418 9.94922C141.465 9.92578 141.512 9.90234 141.559 9.87891C141.617 9.84375 141.67 9.80859 141.717 9.77344C141.799 9.71484 141.922 9.65625 142.086 9.59766C142.156 9.57422 142.221 9.5625 142.279 9.5625C142.373 9.5625 142.461 9.53906 142.543 9.49219C142.59 9.48047 142.631 9.46875 142.666 9.45703C142.713 9.44531 142.754 9.43359 142.789 9.42188C142.883 9.39844 142.953 9.38672 143 9.38672ZM137.727 24.9609L137.902 25.0312C138.113 24.9375 138.371 24.9023 138.676 24.9258C138.992 24.9492 139.238 24.9023 139.414 24.7852C139.531 24.6914 139.613 24.6211 139.66 24.5742C139.73 24.5039 139.812 24.4805 139.906 24.5039C140.281 24.3633 140.598 24.2227 140.855 24.082C141.125 23.9414 141.406 23.8359 141.699 23.7656C141.887 23.6953 142.051 23.5898 142.191 23.4492C142.672 23.2969 143.076 23.0801 143.404 22.7988C143.744 22.5176 144.113 22.2188 144.512 21.9023C144.84 21.7148 145.115 21.5508 145.338 21.4102C145.561 21.2695 145.801 21.0938 146.059 20.8828C146.117 20.7539 146.182 20.666 146.252 20.6191C146.311 20.584 146.375 20.5078 146.445 20.3906C146.867 20.3906 147.102 20.5547 147.148 20.8828C147.031 21.1406 146.873 21.3516 146.674 21.5156C146.463 21.6914 146.281 21.8789 146.129 22.0781C145.941 22.1953 145.789 22.3008 145.672 22.3945C145.555 22.4883 145.438 22.6289 145.32 22.8164C145.309 22.8164 145.238 22.8691 145.109 22.9746C144.992 23.0801 144.922 23.1328 144.898 23.1328C144.711 23.3555 144.57 23.4902 144.477 23.5371C144.383 23.584 144.219 23.707 143.984 23.9062C143.832 24.1641 143.621 24.375 143.352 24.5391C142.848 25.0195 142.314 25.4238 141.752 25.752C141.459 25.916 141.184 26.0859 140.926 26.2617C140.668 26.4258 140.422 26.5898 140.188 26.7539C140.07 26.8242 139.988 26.8887 139.941 26.9473C139.895 27.0059 139.812 27.082 139.695 27.1758C139.578 27.2695 139.396 27.3633 139.15 27.457C138.904 27.5508 138.688 27.6328 138.5 27.7031C138.348 27.7969 138.219 27.8672 138.113 27.9141C137.586 27.9375 137.188 27.8555 136.918 27.668C136.613 27.5039 136.379 27.375 136.215 27.2812C136.051 27.1875 135.91 27.0352 135.793 26.8242C135.523 26.6953 135.365 26.4785 135.318 26.1738C135.295 26.0098 135.266 25.8516 135.23 25.6992C135.195 25.5469 135.16 25.3945 135.125 25.2422C135.102 25.125 135.078 24.9902 135.055 24.8379C135.031 24.6855 135.031 24.5273 135.055 24.3633C135.113 24.0938 135.148 23.8184 135.16 23.5371C135.172 23.2793 135.23 23.0273 135.336 22.7812C135.441 22.5469 135.506 22.2891 135.529 22.0078C135.553 21.7266 135.617 21.4688 135.723 21.2344C135.875 21 135.939 20.8711 135.916 20.8477C135.904 20.8359 135.91 20.8008 135.934 20.7422L136.092 20.5312C136.127 20.4844 136.18 20.4023 136.25 20.2852L136.461 19.7578C136.566 19.5586 136.672 19.3945 136.777 19.2656C136.883 19.125 136.977 18.9258 137.059 18.668C137.117 18.5039 137.182 18.375 137.252 18.2812C137.299 18.2227 137.34 18.1641 137.375 18.1055C137.422 18.0352 137.469 17.9648 137.516 17.8945C137.574 17.7773 137.633 17.6309 137.691 17.4551C137.715 17.373 137.738 17.2969 137.762 17.2266C137.797 17.1445 137.832 17.0625 137.867 16.9805C137.938 16.793 138.025 16.6055 138.131 16.418C138.236 16.2305 138.348 16.043 138.465 15.8555C138.559 15.668 138.641 15.5273 138.711 15.4336C138.781 15.3398 138.922 15.2812 139.133 15.2578C139.238 15.2344 139.344 15.2402 139.449 15.2754C139.578 15.3105 139.695 15.3047 139.801 15.2578C140.105 15.1172 140.316 15.0469 140.434 15.0469C140.551 15.0469 140.633 15.0117 140.68 14.9414C140.926 14.9531 141.113 15.0352 141.242 15.1875C141.371 15.3281 141.512 15.4688 141.664 15.6094C141.523 16.2891 141.365 16.8105 141.189 17.1738C141.014 17.5371 140.82 17.918 140.609 18.3164C140.492 18.5039 140.375 18.7148 140.258 18.9492C140.141 19.1836 140.035 19.3945 139.941 19.582C139.824 19.8398 139.701 20.0684 139.572 20.2676C139.42 20.502 139.309 20.7305 139.238 20.9531L139.08 21.2871C139.01 21.4277 138.957 21.5391 138.922 21.6211C138.898 21.7031 138.869 21.7852 138.834 21.8672C138.811 21.9375 138.775 22.002 138.729 22.0605C138.682 22.1191 138.641 22.1836 138.605 22.2539C138.57 22.3125 138.535 22.3711 138.5 22.4297C138.43 22.5703 138.359 22.7109 138.289 22.8516C138.219 22.9922 138.16 23.1445 138.113 23.3086C137.996 23.5664 137.926 23.7363 137.902 23.8184C137.891 23.8418 137.879 23.8711 137.867 23.9062C137.855 23.9297 137.844 23.9531 137.832 23.9766C137.785 24.2344 137.715 24.4453 137.621 24.6094C137.527 24.7734 137.562 24.8906 137.727 24.9609ZM154.145 22.9219C154.543 22.8047 154.941 22.6992 155.34 22.6055C155.738 22.5117 156.148 22.4414 156.57 22.3945C156.945 22.3711 157.332 22.3008 157.73 22.1836L158.223 22.0254C158.305 22.002 158.381 21.9785 158.451 21.9551C158.533 21.9199 158.609 21.8906 158.68 21.8672C158.844 21.8203 159.002 21.7793 159.154 21.7441C159.307 21.709 159.441 21.6797 159.559 21.6562C159.746 21.7969 159.834 21.873 159.822 21.8848C159.811 21.8965 159.828 21.9258 159.875 21.9727L159.594 22.4648C159.5 22.5352 159.389 22.582 159.26 22.6055C159.143 22.6172 159.02 22.6523 158.891 22.7109C158.773 22.7812 158.703 22.8281 158.68 22.8516C158.621 22.9102 158.574 22.9453 158.539 22.957C158.434 22.9805 158.357 22.9746 158.311 22.9395C158.24 22.8926 158.188 22.8633 158.152 22.8516C157.578 23.2266 156.934 23.4844 156.219 23.625C155.469 23.7656 154.777 23.9414 154.145 24.1523C153.91 24.2695 153.676 24.3926 153.441 24.5215C153.207 24.6504 152.961 24.7969 152.703 24.9609C152.516 25.3359 152.252 25.6992 151.912 26.0508C151.572 26.4023 151.227 26.707 150.875 26.9648C150.781 27.0352 150.705 27.0879 150.646 27.123C150.6 27.1465 150.559 27.1699 150.523 27.1934C150.5 27.2168 150.477 27.2344 150.453 27.2461C150.371 27.2812 150.283 27.3105 150.189 27.334C150.096 27.3691 150.002 27.3984 149.908 27.4219C149.814 27.4453 149.721 27.4688 149.627 27.4922C149.533 27.5156 149.445 27.5391 149.363 27.5625C149.223 27.7031 149.105 27.7734 149.012 27.7734C148.859 27.7969 148.719 27.7734 148.59 27.7031C148.438 27.6211 148.285 27.5742 148.133 27.5625C148.016 27.3516 147.945 27.2051 147.922 27.123C147.898 27.0645 147.852 27.0234 147.781 27C147.723 26.7656 147.588 26.543 147.377 26.332C147.178 26.1328 147.02 25.9102 146.902 25.6641C146.855 25.5703 146.814 25.4707 146.779 25.3652C146.744 25.2598 146.727 25.1602 146.727 25.0664C146.75 24.8086 146.855 24.5859 147.043 24.3984C147.23 24.2109 147.418 24.0586 147.605 23.9414C147.746 24.1523 147.869 24.2344 147.975 24.1875C148.08 24.1406 148.168 24.0938 148.238 24.0469C148.32 24.0117 148.42 23.9824 148.537 23.959L148.766 23.9062C149.117 23.8242 149.492 23.7539 149.891 23.6953C150.148 23.6719 150.348 23.6777 150.488 23.7129C150.664 23.748 150.852 23.7422 151.051 23.6953C151.168 23.4844 151.314 23.2852 151.49 23.0977C151.666 22.9102 151.836 22.7344 152 22.5703C152.117 22.2891 152.27 21.9844 152.457 21.6562C152.645 21.3281 152.832 21.0117 153.02 20.707L153.336 20.0742C153.383 20.0273 153.424 19.9805 153.459 19.9336C153.494 19.8867 153.535 19.8164 153.582 19.7227C153.629 19.5352 153.646 19.3535 153.635 19.1777C153.623 19.002 153.605 18.8086 153.582 18.5977C153.359 18.4688 153.137 18.293 152.914 18.0703C152.773 18.1289 152.639 18.1289 152.51 18.0703C152.381 18.0117 152.246 18.0117 152.105 18.0703C152.035 18.082 151.965 18.1172 151.895 18.1758C151.859 18.1992 151.818 18.2227 151.771 18.2461C151.736 18.2695 151.695 18.293 151.648 18.3164C151.438 18.4336 151.209 18.5391 150.963 18.6328C150.717 18.7148 150.523 18.8555 150.383 19.0547C150.254 19.1836 150.137 19.3066 150.031 19.4238C149.926 19.5293 149.832 19.6289 149.75 19.7227C149.668 19.8164 149.58 19.916 149.486 20.0215C149.404 20.1152 149.316 20.2148 149.223 20.3203C149.105 20.4141 149.006 20.4961 148.924 20.5664C148.854 20.625 148.807 20.6777 148.783 20.7246C148.748 20.7832 148.695 20.8477 148.625 20.918C148.555 20.9883 148.484 21.0586 148.414 21.1289C148.344 21.1875 148.273 21.2461 148.203 21.3047C148.062 21.4219 147.934 21.5508 147.816 21.6914C147.746 21.7852 147.682 21.8496 147.623 21.8848C147.564 21.9199 147.5 21.9844 147.43 22.0781C147.289 22.2305 147.166 22.4062 147.061 22.6055C146.967 22.7812 146.855 22.9688 146.727 23.168L146.023 24.293C145.895 24.6562 145.754 25.0195 145.602 25.3828C145.461 25.7344 145.309 26.0801 145.145 26.4199C144.98 26.7598 144.822 27.1113 144.67 27.4746C144.529 27.8379 144.395 28.207 144.266 28.582C144.219 28.8281 144.184 28.9629 144.16 28.9863C144.137 29.0098 144.125 29.0391 144.125 29.0742C144.102 29.168 144.084 29.2559 144.072 29.3379C144.049 29.4199 144.025 29.502 144.002 29.584C143.967 29.7363 143.914 29.8828 143.844 30.0234C143.797 30.2109 143.727 30.4043 143.633 30.6035C143.539 30.8027 143.445 30.9961 143.352 31.1836C143.199 31.5586 143.059 31.916 142.93 32.2559C142.789 32.6426 142.648 33.0117 142.508 33.3633C142.449 33.4922 142.396 33.6211 142.35 33.75C142.303 33.8789 142.256 34.0078 142.209 34.1367L141.945 34.9102C141.887 35.0391 141.846 35.1797 141.822 35.332C141.811 35.4023 141.799 35.4727 141.787 35.543C141.775 35.6133 141.758 35.6836 141.734 35.7539C141.664 36 141.576 36.2695 141.471 36.5625C141.354 36.8672 141.289 37.1367 141.277 37.3711C140.938 37.6992 140.703 37.9805 140.574 38.2148C140.316 38.4727 140.047 38.7012 139.766 38.9004C139.484 39.0996 139.168 39.2695 138.816 39.4102C138.594 39.4102 138.307 39.3867 137.955 39.3398C137.592 39.3047 137.41 39.1523 137.41 38.8828C137.387 38.6719 137.393 38.4023 137.428 38.0742C137.463 37.7461 137.539 37.4648 137.656 37.2305C137.75 36.9727 137.85 36.7266 137.955 36.4922C138.061 36.2578 138.16 36.0586 138.254 35.8945C138.395 35.2852 138.57 34.7695 138.781 34.3477C138.84 34.2188 138.898 34.0957 138.957 33.9785C139.016 33.8613 139.074 33.7441 139.133 33.627C139.262 33.3809 139.367 33.1406 139.449 32.9062C139.508 32.7422 139.543 32.5664 139.555 32.3789C139.566 32.1914 139.637 32.0273 139.766 31.8867C139.93 31.4883 140.135 31.1133 140.381 30.7617C140.627 30.4102 140.879 30.0586 141.137 29.707C141.266 29.5078 141.371 29.3145 141.453 29.127C141.547 28.9277 141.652 28.7344 141.77 28.5469C141.98 28.1836 142.156 27.8086 142.297 27.4219C142.438 27.0234 142.637 26.6602 142.895 26.332C142.953 26.2031 143.012 26.0801 143.07 25.9629C143.129 25.8457 143.188 25.7285 143.246 25.6113L143.598 24.9258C143.633 24.8438 143.674 24.7207 143.721 24.5566C143.768 24.3926 143.809 24.2695 143.844 24.1875C143.914 24.082 143.984 23.9766 144.055 23.8711C144.113 23.7539 144.172 23.6367 144.23 23.5195C144.441 23.0508 144.658 22.5879 144.881 22.1309C145.104 21.6738 145.355 21.2227 145.637 20.7773C145.648 20.5312 145.713 20.2969 145.83 20.0742C145.889 19.9688 145.941 19.8574 145.988 19.7402C146.035 19.623 146.082 19.5 146.129 19.3711C146.199 19.1719 146.252 18.9727 146.287 18.7734C146.334 18.5273 146.375 18.3281 146.41 18.1758C146.48 17.9648 146.562 17.8008 146.656 17.6836C146.785 17.5195 146.891 17.3438 146.973 17.1562C146.996 17.1211 147.02 17.0859 147.043 17.0508C147.066 17.0156 147.09 16.9746 147.113 16.9277C147.137 16.8809 147.16 16.8398 147.184 16.8047C147.207 16.7695 147.23 16.7344 147.254 16.6992C147.324 16.5586 147.377 16.4355 147.412 16.3301C147.436 16.248 147.5 16.1367 147.605 15.9961C147.887 15.668 148.068 15.4863 148.15 15.4512C148.209 15.4277 148.268 15.3984 148.326 15.3633C148.385 15.3164 148.449 15.2695 148.52 15.2227C148.988 15.1992 149.281 15.3105 149.398 15.5566C149.516 15.8027 149.621 16.0547 149.715 16.3125C149.668 16.5 149.621 16.6875 149.574 16.875C149.527 17.0625 149.48 17.2852 149.434 17.543C149.527 17.4609 149.621 17.3789 149.715 17.2969C149.82 17.2031 149.932 17.1094 150.049 17.0156C150.283 16.8164 150.488 16.6289 150.664 16.4531C150.863 16.3359 151.057 16.2129 151.244 16.084C151.443 15.9551 151.637 15.8262 151.824 15.6973C152.199 15.4277 152.621 15.1992 153.09 15.0117C153.207 14.9648 153.33 14.918 153.459 14.8711C153.588 14.8242 153.711 14.8008 153.828 14.8008C153.934 14.8008 154.033 14.8301 154.127 14.8887C154.244 14.959 154.355 15 154.461 15.0117C154.59 15.1406 154.725 15.252 154.865 15.3457C154.994 15.4277 155.129 15.5508 155.27 15.7148C155.363 15.832 155.434 15.9727 155.48 16.1367C155.504 16.2188 155.527 16.3008 155.551 16.3828C155.574 16.4648 155.598 16.5469 155.621 16.6289C155.645 16.7109 155.668 16.793 155.691 16.875C155.727 16.957 155.768 17.0391 155.814 17.1211C155.896 17.2734 155.949 17.4258 155.973 17.5781C155.973 17.6484 155.961 17.7656 155.938 17.9297C155.914 18.0938 155.902 18.2109 155.902 18.2812C155.902 18.375 155.908 18.4453 155.92 18.4922C155.932 18.5391 155.938 18.6328 155.938 18.7734C155.926 18.9961 155.832 19.2891 155.656 19.6523L155.234 20.5312C155.188 20.625 155.141 20.7188 155.094 20.8125C155.059 20.8945 155.023 20.9766 154.988 21.0586L154.742 21.5859C154.625 21.8438 154.52 22.0781 154.426 22.2891C154.332 22.5 154.238 22.7109 154.145 22.9219ZM167.961 22.9219C168.359 22.8047 168.758 22.6992 169.156 22.6055C169.555 22.5117 169.965 22.4414 170.387 22.3945C170.762 22.3711 171.148 22.3008 171.547 22.1836L172.039 22.0254C172.121 22.002 172.197 21.9785 172.268 21.9551C172.35 21.9199 172.426 21.8906 172.496 21.8672C172.66 21.8203 172.818 21.7793 172.971 21.7441C173.123 21.709 173.258 21.6797 173.375 21.6562C173.562 21.7969 173.65 21.873 173.639 21.8848C173.627 21.8965 173.645 21.9258 173.691 21.9727L173.41 22.4648C173.316 22.5352 173.205 22.582 173.076 22.6055C172.959 22.6172 172.836 22.6523 172.707 22.7109C172.59 22.7812 172.52 22.8281 172.496 22.8516C172.438 22.9102 172.391 22.9453 172.355 22.957C172.25 22.9805 172.174 22.9746 172.127 22.9395C172.057 22.8926 172.004 22.8633 171.969 22.8516C171.395 23.2266 170.75 23.4844 170.035 23.625C169.285 23.7656 168.594 23.9414 167.961 24.1523C167.727 24.2695 167.492 24.3926 167.258 24.5215C167.023 24.6504 166.777 24.7969 166.52 24.9609C166.332 25.3359 166.068 25.6992 165.729 26.0508C165.389 26.4023 165.043 26.707 164.691 26.9648C164.598 27.0352 164.521 27.0879 164.463 27.123C164.416 27.1465 164.375 27.1699 164.34 27.1934C164.316 27.2168 164.293 27.2344 164.27 27.2461C164.188 27.2812 164.1 27.3105 164.006 27.334C163.912 27.3691 163.818 27.3984 163.725 27.4219C163.631 27.4453 163.537 27.4688 163.443 27.4922C163.35 27.5156 163.262 27.5391 163.18 27.5625C163.039 27.7031 162.922 27.7734 162.828 27.7734C162.676 27.7969 162.535 27.7734 162.406 27.7031C162.254 27.6211 162.102 27.5742 161.949 27.5625C161.832 27.3516 161.762 27.2051 161.738 27.123C161.715 27.0645 161.668 27.0234 161.598 27C161.539 26.7656 161.404 26.543 161.193 26.332C160.994 26.1328 160.836 25.9102 160.719 25.6641C160.672 25.5703 160.631 25.4707 160.596 25.3652C160.561 25.2598 160.543 25.1602 160.543 25.0664C160.566 24.8086 160.672 24.5859 160.859 24.3984C161.047 24.2109 161.234 24.0586 161.422 23.9414C161.562 24.1523 161.686 24.2344 161.791 24.1875C161.896 24.1406 161.984 24.0938 162.055 24.0469C162.137 24.0117 162.236 23.9824 162.354 23.959L162.582 23.9062C162.934 23.8242 163.309 23.7539 163.707 23.6953C163.965 23.6719 164.164 23.6777 164.305 23.7129C164.48 23.748 164.668 23.7422 164.867 23.6953C164.984 23.4844 165.131 23.2852 165.307 23.0977C165.482 22.9102 165.652 22.7344 165.816 22.5703C165.934 22.2891 166.086 21.9844 166.273 21.6562C166.461 21.3281 166.648 21.0117 166.836 20.707L167.152 20.0742C167.199 20.0273 167.24 19.9805 167.275 19.9336C167.311 19.8867 167.352 19.8164 167.398 19.7227C167.445 19.5352 167.463 19.3535 167.451 19.1777C167.439 19.002 167.422 18.8086 167.398 18.5977C167.176 18.4688 166.953 18.293 166.73 18.0703C166.59 18.1289 166.455 18.1289 166.326 18.0703C166.197 18.0117 166.062 18.0117 165.922 18.0703C165.852 18.082 165.781 18.1172 165.711 18.1758C165.676 18.1992 165.635 18.2227 165.588 18.2461C165.553 18.2695 165.512 18.293 165.465 18.3164C165.254 18.4336 165.025 18.5391 164.779 18.6328C164.533 18.7148 164.34 18.8555 164.199 19.0547C164.07 19.1836 163.953 19.3066 163.848 19.4238C163.742 19.5293 163.648 19.6289 163.566 19.7227C163.484 19.8164 163.396 19.916 163.303 20.0215C163.221 20.1152 163.133 20.2148 163.039 20.3203C162.922 20.4141 162.822 20.4961 162.74 20.5664C162.67 20.625 162.623 20.6777 162.6 20.7246C162.564 20.7832 162.512 20.8477 162.441 20.918C162.371 20.9883 162.301 21.0586 162.23 21.1289C162.16 21.1875 162.09 21.2461 162.02 21.3047C161.879 21.4219 161.75 21.5508 161.633 21.6914C161.562 21.7852 161.498 21.8496 161.439 21.8848C161.381 21.9199 161.316 21.9844 161.246 22.0781C161.105 22.2305 160.982 22.4062 160.877 22.6055C160.783 22.7812 160.672 22.9688 160.543 23.168L159.84 24.293C159.711 24.6562 159.57 25.0195 159.418 25.3828C159.277 25.7344 159.125 26.0801 158.961 26.4199C158.797 26.7598 158.639 27.1113 158.486 27.4746C158.346 27.8379 158.211 28.207 158.082 28.582C158.035 28.8281 158 28.9629 157.977 28.9863C157.953 29.0098 157.941 29.0391 157.941 29.0742C157.918 29.168 157.9 29.2559 157.889 29.3379C157.865 29.4199 157.842 29.502 157.818 29.584C157.783 29.7363 157.73 29.8828 157.66 30.0234C157.613 30.2109 157.543 30.4043 157.449 30.6035C157.355 30.8027 157.262 30.9961 157.168 31.1836C157.016 31.5586 156.875 31.916 156.746 32.2559C156.605 32.6426 156.465 33.0117 156.324 33.3633C156.266 33.4922 156.213 33.6211 156.166 33.75C156.119 33.8789 156.072 34.0078 156.025 34.1367L155.762 34.9102C155.703 35.0391 155.662 35.1797 155.639 35.332C155.627 35.4023 155.615 35.4727 155.604 35.543C155.592 35.6133 155.574 35.6836 155.551 35.7539C155.48 36 155.393 36.2695 155.287 36.5625C155.17 36.8672 155.105 37.1367 155.094 37.3711C154.754 37.6992 154.52 37.9805 154.391 38.2148C154.133 38.4727 153.863 38.7012 153.582 38.9004C153.301 39.0996 152.984 39.2695 152.633 39.4102C152.41 39.4102 152.123 39.3867 151.771 39.3398C151.408 39.3047 151.227 39.1523 151.227 38.8828C151.203 38.6719 151.209 38.4023 151.244 38.0742C151.279 37.7461 151.355 37.4648 151.473 37.2305C151.566 36.9727 151.666 36.7266 151.771 36.4922C151.877 36.2578 151.977 36.0586 152.07 35.8945C152.211 35.2852 152.387 34.7695 152.598 34.3477C152.656 34.2188 152.715 34.0957 152.773 33.9785C152.832 33.8613 152.891 33.7441 152.949 33.627C153.078 33.3809 153.184 33.1406 153.266 32.9062C153.324 32.7422 153.359 32.5664 153.371 32.3789C153.383 32.1914 153.453 32.0273 153.582 31.8867C153.746 31.4883 153.951 31.1133 154.197 30.7617C154.443 30.4102 154.695 30.0586 154.953 29.707C155.082 29.5078 155.188 29.3145 155.27 29.127C155.363 28.9277 155.469 28.7344 155.586 28.5469C155.797 28.1836 155.973 27.8086 156.113 27.4219C156.254 27.0234 156.453 26.6602 156.711 26.332C156.77 26.2031 156.828 26.0801 156.887 25.9629C156.945 25.8457 157.004 25.7285 157.062 25.6113L157.414 24.9258C157.449 24.8438 157.49 24.7207 157.537 24.5566C157.584 24.3926 157.625 24.2695 157.66 24.1875C157.73 24.082 157.801 23.9766 157.871 23.8711C157.93 23.7539 157.988 23.6367 158.047 23.5195C158.258 23.0508 158.475 22.5879 158.697 22.1309C158.92 21.6738 159.172 21.2227 159.453 20.7773C159.465 20.5312 159.529 20.2969 159.646 20.0742C159.705 19.9688 159.758 19.8574 159.805 19.7402C159.852 19.623 159.898 19.5 159.945 19.3711C160.016 19.1719 160.068 18.9727 160.104 18.7734C160.15 18.5273 160.191 18.3281 160.227 18.1758C160.297 17.9648 160.379 17.8008 160.473 17.6836C160.602 17.5195 160.707 17.3438 160.789 17.1562C160.812 17.1211 160.836 17.0859 160.859 17.0508C160.883 17.0156 160.906 16.9746 160.93 16.9277C160.953 16.8809 160.977 16.8398 161 16.8047C161.023 16.7695 161.047 16.7344 161.07 16.6992C161.141 16.5586 161.193 16.4355 161.229 16.3301C161.252 16.248 161.316 16.1367 161.422 15.9961C161.703 15.668 161.885 15.4863 161.967 15.4512C162.025 15.4277 162.084 15.3984 162.143 15.3633C162.201 15.3164 162.266 15.2695 162.336 15.2227C162.805 15.1992 163.098 15.3105 163.215 15.5566C163.332 15.8027 163.438 16.0547 163.531 16.3125C163.484 16.5 163.438 16.6875 163.391 16.875C163.344 17.0625 163.297 17.2852 163.25 17.543C163.344 17.4609 163.438 17.3789 163.531 17.2969C163.637 17.2031 163.748 17.1094 163.865 17.0156C164.1 16.8164 164.305 16.6289 164.48 16.4531C164.68 16.3359 164.873 16.2129 165.061 16.084C165.26 15.9551 165.453 15.8262 165.641 15.6973C166.016 15.4277 166.438 15.1992 166.906 15.0117C167.023 14.9648 167.146 14.918 167.275 14.8711C167.404 14.8242 167.527 14.8008 167.645 14.8008C167.75 14.8008 167.85 14.8301 167.943 14.8887C168.061 14.959 168.172 15 168.277 15.0117C168.406 15.1406 168.541 15.252 168.682 15.3457C168.811 15.4277 168.945 15.5508 169.086 15.7148C169.18 15.832 169.25 15.9727 169.297 16.1367C169.32 16.2188 169.344 16.3008 169.367 16.3828C169.391 16.4648 169.414 16.5469 169.438 16.6289C169.461 16.7109 169.484 16.793 169.508 16.875C169.543 16.957 169.584 17.0391 169.631 17.1211C169.713 17.2734 169.766 17.4258 169.789 17.5781C169.789 17.6484 169.777 17.7656 169.754 17.9297C169.73 18.0938 169.719 18.2109 169.719 18.2812C169.719 18.375 169.725 18.4453 169.736 18.4922C169.748 18.5391 169.754 18.6328 169.754 18.7734C169.742 18.9961 169.648 19.2891 169.473 19.6523L169.051 20.5312C169.004 20.625 168.957 20.7188 168.91 20.8125C168.875 20.8945 168.84 20.9766 168.805 21.0586L168.559 21.5859C168.441 21.8438 168.336 22.0781 168.242 22.2891C168.148 22.5 168.055 22.7109 167.961 22.9219ZM172.531 19.2305C172.684 19.1484 172.871 18.9727 173.094 18.7031C173.316 18.4219 173.533 18.1523 173.744 17.8945C173.955 17.625 174.113 17.4727 174.219 17.4375C174.289 17.3203 174.354 17.2207 174.412 17.1387C174.471 17.0566 174.559 16.9805 174.676 16.9102C174.863 16.5703 175.109 16.2832 175.414 16.0488C175.73 15.8027 176.023 15.5391 176.293 15.2578C176.516 15.1641 176.738 15.0586 176.961 14.9414C177.195 14.8242 177.424 14.6895 177.646 14.5371C178.104 14.2324 178.613 14.0742 179.176 14.0625C179.434 14.1797 179.686 14.2148 179.932 14.168C180.166 14.1211 180.395 14.1797 180.617 14.3438C180.746 14.5664 180.852 14.7012 180.934 14.748C181.016 14.7949 181.086 14.8594 181.145 14.9414C181.238 15.2344 181.309 15.4277 181.355 15.5215C181.414 15.6152 181.449 15.7148 181.461 15.8203C181.473 15.9961 181.484 16.1484 181.496 16.2773C181.508 16.3945 181.52 16.4941 181.531 16.5762C181.543 16.7285 181.543 16.875 181.531 17.0156C181.461 17.6133 181.344 18.2109 181.18 18.8086C181.156 18.8789 181.133 18.9492 181.109 19.0195C181.086 19.0898 181.062 19.166 181.039 19.248C180.992 19.4004 180.934 19.5352 180.863 19.6523C180.688 19.875 180.564 20.0566 180.494 20.1973C180.389 20.3848 180.312 20.5078 180.266 20.5664C180.125 20.707 179.99 20.8359 179.861 20.9531C179.744 21.0703 179.633 21.1758 179.527 21.2695C179.422 21.3281 179.316 21.3926 179.211 21.4629C179.105 21.5215 179 21.5859 178.895 21.6562C178.695 21.7852 178.461 21.8789 178.191 21.9375L177.875 22.1309C177.77 22.2012 177.652 22.2422 177.523 22.2539C177.312 22.4062 177.078 22.5293 176.82 22.623C176.703 22.6699 176.58 22.7168 176.451 22.7637C176.334 22.8105 176.211 22.8633 176.082 22.9219C175.906 22.9922 175.754 23.0742 175.625 23.168C175.496 23.2617 175.332 23.3555 175.133 23.4492C175.027 23.4844 174.857 23.5254 174.623 23.5723C174.4 23.6074 174.242 23.6484 174.148 23.6953C174.266 23.9297 174.312 24.2227 174.289 24.5742C174.277 24.9023 174.336 25.1953 174.465 25.4531C174.77 25.5234 175.104 25.5762 175.467 25.6113C175.83 25.6465 176.176 25.6406 176.504 25.5938C176.562 25.582 176.621 25.5645 176.68 25.541C176.75 25.5176 176.82 25.4941 176.891 25.4707C176.961 25.4473 177.031 25.4238 177.102 25.4004C177.172 25.377 177.242 25.3594 177.312 25.3477C177.57 25.3008 177.822 25.2422 178.068 25.1719C178.314 25.1016 178.531 25.0078 178.719 24.8906C179.398 24.6562 180.055 24.3398 180.688 23.9414C181.32 23.543 181.871 23.1094 182.34 22.6406C182.621 22.4531 182.932 22.1953 183.271 21.8672C183.611 21.5391 183.875 21.2344 184.062 20.9531C184.414 20.5781 184.725 20.2852 184.994 20.0742C185.264 19.8633 185.516 19.7695 185.75 19.793C185.938 19.793 186.119 19.9043 186.295 20.127C186.471 20.3496 186.453 20.5898 186.242 20.8477C186.02 20.9883 185.773 21.1992 185.504 21.4805C185.246 21.7617 184.977 21.9609 184.695 22.0781C184.496 22.207 184.232 22.4648 183.904 22.8516C183.588 23.2148 183.324 23.4961 183.113 23.6953C183.066 23.7422 183.014 23.7949 182.955 23.8535C182.896 23.9121 182.826 23.9707 182.744 24.0293C182.592 24.1465 182.469 24.2695 182.375 24.3984C182.012 24.7031 181.66 24.9609 181.32 25.1719C181.191 25.125 181.086 25.1484 181.004 25.2422C180.898 25.3711 180.805 25.4648 180.723 25.5234C180.688 25.5469 180.652 25.5703 180.617 25.5938C180.582 25.6172 180.541 25.6406 180.494 25.6641C180.447 25.6875 180.406 25.7109 180.371 25.7344C180.336 25.7578 180.301 25.7812 180.266 25.8047C180.078 25.9688 179.873 26.1328 179.65 26.2969C179.428 26.4609 179.199 26.6016 178.965 26.7188C178.73 26.8594 178.496 26.9883 178.262 27.1055C178.027 27.2344 177.793 27.3457 177.559 27.4395C177.324 27.5332 177.09 27.6445 176.855 27.7734C176.633 27.9023 176.41 28.043 176.188 28.1953L175.801 28.248C175.742 28.2598 175.684 28.2656 175.625 28.2656C175.566 28.2773 175.508 28.2891 175.449 28.3008C175.32 28.3477 175.197 28.3711 175.08 28.3711C174.963 28.3711 174.816 28.3477 174.641 28.3008C173.867 28.0898 173.234 27.7148 172.742 27.1758C172.672 27.1055 172.596 27.041 172.514 26.9824C172.443 26.9121 172.367 26.8477 172.285 26.7891C172.098 26.6484 171.969 26.5195 171.898 26.4023C171.793 26.2266 171.688 25.9512 171.582 25.5762C171.465 25.2012 171.365 24.8203 171.283 24.4336C171.201 24.0352 171.16 23.7305 171.16 23.5195C171.23 23.3789 171.307 23.1387 171.389 22.7988C171.471 22.4473 171.541 22.1016 171.6 21.7617C171.658 21.4102 171.688 21.1641 171.688 21.0234C171.734 20.9766 171.828 20.8242 171.969 20.5664C172.098 20.2969 172.221 20.0273 172.338 19.7578C172.467 19.4766 172.531 19.3008 172.531 19.2305ZM178.191 16.9805C178.027 17.1914 177.863 17.3906 177.699 17.5781C177.535 17.7656 177.348 17.9414 177.137 18.1055C176.996 18.3633 176.832 18.5977 176.645 18.8086C176.457 19.0195 176.27 19.2188 176.082 19.4062C175.988 19.5938 175.883 19.7402 175.766 19.8457C175.648 19.9512 175.52 20.0625 175.379 20.1797C175.227 20.4375 175.039 20.6836 174.816 20.918C174.594 21.1523 174.547 21.4219 174.676 21.7266C174.934 21.7734 175.191 21.7383 175.449 21.6211C175.707 21.5039 175.93 21.3984 176.117 21.3047C176.211 21.2461 176.305 21.1934 176.398 21.1465C176.504 21.0996 176.604 21.0527 176.697 21.0059C176.791 20.959 176.885 20.9121 176.979 20.8652C177.072 20.8184 177.16 20.7656 177.242 20.707L178.156 19.793C178.297 19.6641 178.438 19.5117 178.578 19.3359C178.637 19.2539 178.695 19.1719 178.754 19.0898C178.824 18.9961 178.895 18.9023 178.965 18.8086C179.023 18.5508 179.117 18.3105 179.246 18.0879C179.387 17.8535 179.445 17.6133 179.422 17.3672C179.41 17.2617 179.369 17.1387 179.299 16.998C179.229 16.8574 179.188 16.7461 179.176 16.6641C178.93 16.6641 178.748 16.7051 178.631 16.7871C178.572 16.834 178.502 16.875 178.42 16.9102C178.35 16.9336 178.273 16.957 178.191 16.9805ZM194.609 7.59375C195.125 7.67578 195.57 7.72852 195.945 7.75195C196.332 7.77539 196.754 7.74609 197.211 7.66406L198.6 7.4707C198.975 7.42383 199.426 7.37109 199.953 7.3125C200.094 7.30078 200.24 7.30078 200.393 7.3125C200.475 7.32422 200.551 7.33594 200.621 7.34766C200.691 7.34766 200.762 7.34766 200.832 7.34766C201.137 7.34766 201.436 7.33594 201.729 7.3125C202.021 7.28906 202.297 7.26562 202.555 7.24219C202.602 7.23047 202.643 7.21875 202.678 7.20703C202.725 7.19531 202.766 7.18359 202.801 7.17188C202.871 7.14844 202.941 7.14844 203.012 7.17188C203.117 7.17188 203.223 7.17188 203.328 7.17188C203.434 7.17188 203.539 7.16602 203.645 7.1543C203.855 7.14258 204.043 7.21875 204.207 7.38281C204.277 7.61719 204.301 7.74609 204.277 7.76953C204.242 7.80469 204.219 7.83984 204.207 7.875C204.184 8.17969 204.143 8.33203 204.084 8.33203C204.025 8.33203 203.996 8.35547 203.996 8.40234C203.809 8.44922 203.65 8.49023 203.521 8.52539C203.393 8.56055 203.293 8.63672 203.223 8.75391C202.824 8.83594 202.455 8.85352 202.115 8.80664C201.775 8.74805 201.43 8.80078 201.078 8.96484C200.902 9.04688 200.732 9.13477 200.568 9.22852C200.404 9.33398 200.188 9.33984 199.918 9.24609C199.684 9.24609 199.414 9.25781 199.109 9.28125C198.805 9.30469 198.512 9.32812 198.23 9.35156C197.832 9.38672 197.381 9.42773 196.877 9.47461C196.385 9.50977 196.004 9.5332 195.734 9.54492C195.477 9.55664 195.107 9.57422 194.627 9.59766C194.146 9.62109 193.719 9.63281 193.344 9.63281C193.156 9.78516 193.033 9.98438 192.975 10.2305C192.916 10.4648 192.793 10.6523 192.605 10.793C192.395 11.2617 192.242 11.5605 192.148 11.6895C192.043 11.8301 191.961 12.0117 191.902 12.2344C191.574 12.6562 191.275 13.0957 191.006 13.5527C190.76 13.9746 190.449 14.4023 190.074 14.8359C190.027 15.0938 189.939 15.3223 189.811 15.5215C189.693 15.709 189.605 15.9727 189.547 16.3125C189.301 16.6406 189.113 17.0273 188.984 17.4727C188.926 17.6836 188.855 17.9004 188.773 18.123C188.703 18.3457 188.621 18.5742 188.527 18.8086C188.48 18.9961 188.428 19.1777 188.369 19.3535C188.311 19.5293 188.246 19.7109 188.176 19.8984C188.094 20.1094 187.982 20.3262 187.842 20.5488C187.783 20.6426 187.719 20.748 187.648 20.8652C187.59 20.9707 187.531 21.082 187.473 21.1992C187.426 21.2461 187.402 21.3105 187.402 21.3926C187.402 21.4512 187.391 21.5156 187.367 21.5859C187.332 21.668 187.297 21.75 187.262 21.832C187.227 21.9023 187.191 21.9668 187.156 22.0254C187.109 22.1074 187.051 22.2305 186.98 22.3945C186.945 22.4766 186.916 22.5996 186.893 22.7637C186.869 22.9277 186.84 23.0508 186.805 23.1328C186.793 23.168 186.781 23.2031 186.77 23.2383C186.758 23.2734 186.746 23.3027 186.734 23.3262C186.723 23.3496 186.711 23.3789 186.699 23.4141C186.688 23.4492 186.676 23.4844 186.664 23.5195C186.594 23.8477 186.594 24.0703 186.664 24.1875C186.734 24.3047 186.793 24.4219 186.84 24.5391C186.863 24.6094 186.887 24.6738 186.91 24.7324C186.934 24.791 186.957 24.8496 186.98 24.9082C187.039 25.0137 187.074 25.125 187.086 25.2422C187.145 25.2656 187.203 25.2891 187.262 25.3125C187.32 25.3359 187.373 25.3594 187.42 25.3828C187.514 25.4297 187.625 25.4531 187.754 25.4531C187.906 25.4766 188.059 25.4121 188.211 25.2598C188.375 25.0957 188.516 25.0078 188.633 24.9961C188.773 24.9492 188.932 24.9258 189.107 24.9258C189.26 24.9258 189.395 24.8906 189.512 24.8203C189.582 24.7617 189.646 24.7031 189.705 24.6445C189.764 24.5859 189.816 24.5273 189.863 24.4688C189.934 24.3633 190.062 24.2812 190.25 24.2227C190.625 24.1289 190.824 24.0527 190.848 23.9941C190.859 23.9473 190.941 23.8594 191.094 23.7305C191.176 23.6719 191.252 23.6133 191.322 23.5547C191.404 23.4961 191.475 23.4434 191.533 23.3965C191.627 23.3145 191.785 23.2031 192.008 23.0625C192.242 22.9453 192.377 22.875 192.412 22.8516C192.447 22.8281 192.547 22.7461 192.711 22.6055C192.828 22.5469 192.934 22.4883 193.027 22.4297C193.133 22.3594 193.227 22.2891 193.309 22.2188C193.438 22.1016 193.625 21.9727 193.871 21.832C194.152 21.7148 194.305 21.6445 194.328 21.6211C194.363 21.5859 194.387 21.5449 194.398 21.498C194.41 21.4512 194.539 21.3516 194.785 21.1992C194.867 21.0234 194.973 20.8711 195.102 20.7422C195.16 20.6836 195.225 20.6191 195.295 20.5488C195.365 20.4668 195.441 20.3789 195.523 20.2852C195.676 20.1094 195.822 19.9688 195.963 19.8633C196.127 19.7344 196.262 19.6172 196.367 19.5117C196.414 19.4766 196.473 19.4238 196.543 19.3535C196.613 19.2832 196.695 19.2422 196.789 19.2305C196.859 19.1719 196.918 19.1191 196.965 19.0723C197.023 19.0254 197.076 18.9785 197.123 18.9316C197.17 18.8848 197.223 18.832 197.281 18.7734C197.352 18.7148 197.434 18.6445 197.527 18.5625L197.703 18.3867C197.785 18.3047 197.844 18.2578 197.879 18.2461C197.984 18.2461 198.061 18.2812 198.107 18.3516C198.166 18.4219 198.242 18.457 198.336 18.457C198.324 18.6094 198.312 18.7324 198.301 18.8262C198.301 18.9199 198.301 18.9902 198.301 19.0371C198.301 19.1309 198.277 19.2188 198.23 19.3008C198.09 19.5234 197.932 19.6406 197.756 19.6523C197.58 19.6758 197.445 19.8047 197.352 20.0391C197.281 19.9922 197.193 19.9805 197.088 20.0039C196.982 20.0273 196.906 20.0625 196.859 20.1094C196.906 20.1914 196.93 20.2734 196.93 20.3555C196.93 20.4023 196.941 20.4844 196.965 20.6016C196.531 21.0352 196.25 21.375 196.121 21.6211C195.828 21.9258 195.676 22.0957 195.664 22.1309L195.629 22.1836L195.348 22.4648C195.02 22.7227 194.773 22.9688 194.609 23.2031C194.457 23.4258 194.211 23.6367 193.871 23.8359C193.613 24.0234 193.438 24.1641 193.344 24.2578C193.297 24.3047 193.238 24.3633 193.168 24.4336C193.098 24.4922 193.016 24.5625 192.922 24.6445C192.863 24.7031 192.775 24.8027 192.658 24.9434C192.541 25.084 192.441 25.1836 192.359 25.2422C192.207 25.3594 192.049 25.4648 191.885 25.5586C191.756 25.6289 191.621 25.7461 191.48 25.9102C191.141 26.0625 190.889 26.25 190.725 26.4727C190.572 26.6719 190.344 26.8711 190.039 27.0703C189.828 27.2109 189.541 27.3867 189.178 27.5977C188.814 27.8086 188.504 27.9609 188.246 28.0547C188.211 28.0664 188.176 28.0781 188.141 28.0898C188.105 28.1016 188.076 28.1133 188.053 28.125C188.029 28.1367 188 28.1484 187.965 28.1602C187.93 28.1719 187.895 28.1836 187.859 28.1953C187.672 28.0781 187.49 27.9609 187.314 27.8438C187.139 27.7266 186.992 27.5625 186.875 27.3516C186.652 27.1875 186.482 27.0703 186.365 27C186.225 26.918 186.102 26.8242 185.996 26.7188C185.879 26.5195 185.756 26.3203 185.627 26.1211C185.498 25.9219 185.357 25.7227 185.205 25.5234C184.9 25.1133 184.672 24.668 184.52 24.1875C184.484 24.1289 184.455 24.0293 184.432 23.8887L184.379 23.5547C184.355 23.4609 184.332 23.373 184.309 23.291C184.285 23.209 184.262 23.1328 184.238 23.0625C184.191 22.9453 184.18 22.7695 184.203 22.5352C184.203 22.3711 184.227 22.2188 184.273 22.0781C184.297 21.9961 184.32 21.9141 184.344 21.832C184.367 21.7383 184.391 21.6445 184.414 21.5508C184.461 21.3984 184.514 21.252 184.572 21.1113C184.631 20.959 184.689 20.8125 184.748 20.6719C184.889 20.3555 184.988 20.0508 185.047 19.7578C185.188 19.2656 185.34 18.7969 185.504 18.3516C185.539 18.2695 185.568 18.1582 185.592 18.0176C185.604 17.9121 185.668 17.8359 185.785 17.7891C185.879 17.3203 186.031 16.8691 186.242 16.4355C186.453 16.002 186.664 15.5859 186.875 15.1875C187.004 14.9414 187.127 14.6953 187.244 14.4492C187.361 14.1914 187.479 13.9336 187.596 13.6758C187.713 13.418 187.83 13.166 187.947 12.9199C188.064 12.6621 188.188 12.4102 188.316 12.1641C188.328 11.9062 188.422 11.6719 188.598 11.4609C188.609 11.2266 188.703 10.9746 188.879 10.7051C189.055 10.4355 189.172 10.1836 189.23 9.94922C188.973 9.87891 188.686 9.87305 188.369 9.93164C188.053 9.99023 187.777 10.043 187.543 10.0898C187.121 10.1016 186.676 10.1016 186.207 10.0898C186.125 10.0781 186.043 10.0664 185.961 10.0547C185.891 10.0312 185.814 10.0137 185.732 10.002C185.58 9.9668 185.434 9.94922 185.293 9.94922C185.082 9.96094 184.924 9.94336 184.818 9.89648C184.701 9.83789 184.59 9.83203 184.484 9.87891C184.156 9.59766 183.822 9.35156 183.482 9.14062C183.131 8.92969 182.902 8.66016 182.797 8.33203C182.797 8.26172 182.832 8.20312 182.902 8.15625C182.996 8.08594 183.055 8.03906 183.078 8.01562C183.277 7.95703 183.488 7.93945 183.711 7.96289C183.934 7.97461 184.121 7.93359 184.273 7.83984C184.613 7.88672 184.959 7.86328 185.311 7.76953C185.627 7.67578 185.961 7.64062 186.312 7.66406C186.359 7.66406 186.43 7.67578 186.523 7.69922C186.617 7.72266 186.688 7.73438 186.734 7.73438C186.852 7.74609 186.951 7.74609 187.033 7.73438C187.08 7.72266 187.127 7.71094 187.174 7.69922C187.221 7.6875 187.273 7.67578 187.332 7.66406C187.473 7.64062 187.625 7.64062 187.789 7.66406C187.953 7.6875 188.117 7.6875 188.281 7.66406C188.621 7.64062 188.99 7.66992 189.389 7.75195C189.822 7.83398 190.203 7.81641 190.531 7.69922C190.59 7.53516 190.648 7.37109 190.707 7.20703C190.777 7.03125 190.854 6.86133 190.936 6.69727C191.1 6.35742 191.223 6.02344 191.305 5.69531C191.398 5.55469 191.492 5.39648 191.586 5.2207C191.68 5.04492 191.75 4.875 191.797 4.71094L192.131 4.14844C192.178 4.07812 192.225 4.00781 192.271 3.9375C192.318 3.86719 192.371 3.79688 192.43 3.72656C192.594 3.38672 192.717 3.06445 192.799 2.75977C192.846 2.5957 192.893 2.43164 192.939 2.26758C192.998 2.0918 193.062 1.91016 193.133 1.72266C193.285 1.55859 193.438 1.37695 193.59 1.17773C193.742 0.978516 193.895 0.761719 194.047 0.527344C194.223 0.550781 194.357 0.503906 194.451 0.386719C194.557 0.269531 194.715 0.28125 194.926 0.421875C194.926 0.492188 194.955 0.556641 195.014 0.615234C195.072 0.673828 195.078 0.761719 195.031 0.878906C195.266 1.11328 195.418 1.32422 195.488 1.51172C195.535 1.69922 195.518 1.91602 195.436 2.16211C195.354 2.4082 195.371 2.63672 195.488 2.84766C195.535 2.95312 195.547 3.06445 195.523 3.18164C195.5 3.31055 195.512 3.41016 195.559 3.48047C195.617 3.60938 195.682 3.72656 195.752 3.83203C195.834 3.94922 195.875 4.10156 195.875 4.28906C195.875 4.35938 195.857 4.44727 195.822 4.55273C195.787 4.6582 195.746 4.76953 195.699 4.88672C195.617 5.23828 195.547 5.48438 195.488 5.625C195.465 5.69531 195.441 5.77148 195.418 5.85352C195.395 5.92383 195.371 6 195.348 6.08203C195.184 6.28125 195.102 6.4043 195.102 6.45117C195.102 6.48633 195.09 6.53906 195.066 6.60938C195.031 6.67969 194.996 6.76172 194.961 6.85547C194.926 6.9375 194.885 7.02539 194.838 7.11914C194.791 7.21289 194.75 7.30078 194.715 7.38281C194.68 7.46484 194.645 7.53516 194.609 7.59375ZM198.09 21.6562L198.301 21.832C198.359 21.9258 198.342 22.0547 198.248 22.2188C198.201 22.3008 198.16 22.377 198.125 22.4473C198.102 22.5176 198.078 22.582 198.055 22.6406C198.066 22.6875 198.078 22.7344 198.09 22.7812C198.102 22.8164 198.113 22.8457 198.125 22.8691C198.148 22.9395 198.137 23.0156 198.09 23.0977C198.254 23.2266 198.359 23.3613 198.406 23.502C198.465 23.6895 198.547 23.8477 198.652 23.9766C198.793 24.1289 198.916 24.2461 199.021 24.3281C199.15 24.4102 199.273 24.5156 199.391 24.6445C199.52 24.5742 199.613 24.5391 199.672 24.5391C199.754 24.5391 199.848 24.5156 199.953 24.4688C200.152 24.2109 200.316 23.8828 200.445 23.4844C200.469 23.3906 200.492 23.2852 200.516 23.168C200.539 23.0508 200.551 22.9453 200.551 22.8516C200.539 22.5469 200.445 22.2305 200.27 21.9023C200.094 21.5625 199.965 21.2461 199.883 20.9531C199.789 20.7539 199.76 20.543 199.795 20.3203C199.83 20.0742 199.824 19.8633 199.777 19.6875C199.766 19.5703 199.73 19.4766 199.672 19.4062C199.648 19.3711 199.625 19.3359 199.602 19.3008C199.578 19.2539 199.555 19.207 199.531 19.1602C199.484 18.9609 199.467 18.75 199.479 18.5273C199.502 18.293 199.449 18.0938 199.32 17.9297C199.18 18.0703 198.957 18.3398 198.652 18.7383C198.348 19.125 198.043 19.5117 197.738 19.8984C197.445 20.2852 197.234 20.543 197.105 20.6719C197.047 20.7539 196.982 20.8359 196.912 20.918C196.854 20.9883 196.789 21.0527 196.719 21.1113C196.648 21.1699 196.578 21.2402 196.508 21.3223C196.449 21.3926 196.391 21.4688 196.332 21.5508C195.957 22.0195 195.676 22.3652 195.488 22.5879C195.312 22.8105 195.137 23.0391 194.961 23.2734C194.785 23.5078 194.504 23.8828 194.117 24.3984C193.988 24.5859 193.771 24.8906 193.467 25.3125C193.15 25.7344 192.852 26.1445 192.57 26.543C192.277 26.9297 192.102 27.1875 192.043 27.3164C191.902 27.5508 191.721 27.7559 191.498 27.9316C191.275 28.1074 191.012 28.1953 190.707 28.1953C190.707 28.1836 190.684 28.0898 190.637 27.9141C190.59 27.75 190.549 27.5742 190.514 27.3867C190.467 27.2109 190.438 27.1172 190.426 27.1055C190.496 26.9648 190.549 26.8242 190.584 26.6836C190.619 26.5547 190.719 26.4258 190.883 26.2969C190.93 26.1445 191.064 25.8926 191.287 25.541C191.51 25.1777 191.768 24.791 192.061 24.3809C192.354 23.959 192.629 23.5723 192.887 23.2207C193.133 22.8691 193.297 22.6289 193.379 22.5C193.531 22.3477 193.754 22.084 194.047 21.709C194.328 21.334 194.609 20.959 194.891 20.584C195.184 20.1973 195.395 19.9219 195.523 19.7578C195.629 19.4414 195.846 19.0488 196.174 18.5801C196.514 18.0996 196.871 17.6133 197.246 17.1211C197.633 16.6172 197.949 16.1836 198.195 15.8203C198.312 15.6328 198.412 15.4688 198.494 15.3281C198.576 15.1875 198.664 15.0352 198.758 14.8711C198.852 14.7773 198.934 14.6719 199.004 14.5547C199.051 14.3789 199.027 14.2441 198.934 14.1504C198.852 14.0566 198.816 13.9336 198.828 13.7812C199.039 13.3828 199.244 13.1309 199.443 13.0254C199.654 12.9082 199.859 12.7148 200.059 12.4453C200.199 12.3516 200.311 12.2812 200.393 12.2344C200.51 12.1758 200.621 12.0938 200.727 11.9883C200.891 11.8242 201.131 11.7832 201.447 11.8652C201.775 11.9355 201.969 12.0352 202.027 12.1641C202.039 12.2344 202.039 12.3281 202.027 12.4453C202.016 12.5039 202.004 12.5625 201.992 12.6211C201.98 12.6797 201.969 12.7383 201.957 12.7969C201.934 12.9023 201.91 13.002 201.887 13.0957C201.863 13.1895 201.84 13.2832 201.816 13.377C201.793 13.459 201.77 13.5527 201.746 13.6582C201.723 13.752 201.699 13.8516 201.676 13.957C201.629 14.2148 201.588 14.4609 201.553 14.6953C201.518 14.9297 201.594 15.1523 201.781 15.3633C201.758 15.4805 201.764 15.6211 201.799 15.7852C201.834 15.9492 201.875 16.1016 201.922 16.2422C201.969 16.9922 202.104 17.7363 202.326 18.4746C202.549 19.2129 202.789 19.8867 203.047 20.4961C203.047 20.6133 203.064 20.7305 203.1 20.8477C203.135 20.9648 203.176 21.082 203.223 21.1992C203.293 21.9492 203.223 22.6934 203.012 23.4316C202.906 23.7949 202.801 24.1582 202.695 24.5215C202.602 24.8848 202.508 25.2422 202.414 25.5938C202.273 25.8281 202.156 26.0977 202.062 26.4023C201.98 26.6719 201.863 26.8945 201.711 27.0703C201.594 27.2578 201.488 27.4688 201.395 27.7031C201.301 27.9375 201.113 28.125 200.832 28.2656C200.68 28.3125 200.521 28.3125 200.357 28.2656C200.205 28.2188 200.059 28.2188 199.918 28.2656C199.812 28.2773 199.707 28.3066 199.602 28.3535C199.52 28.3887 199.426 28.4062 199.32 28.4062C199.016 28.4648 198.764 28.4355 198.564 28.3184C198.389 28.2246 198.148 28.1484 197.844 28.0898C197.844 28.0195 197.809 27.9668 197.738 27.9316C197.668 27.8965 197.609 27.8555 197.562 27.8086C197.48 27.457 197.387 27.1875 197.281 27C197.199 26.8359 197.129 26.6602 197.07 26.4727C197 26.2031 196.965 25.9512 196.965 25.7168C196.965 25.459 196.906 25.207 196.789 24.9609C196.695 24.75 196.654 24.6211 196.666 24.5742C196.678 24.5273 196.684 24.457 196.684 24.3633C196.684 24.0586 196.666 23.7246 196.631 23.3613C196.596 22.9863 196.742 22.6875 197.07 22.4648C197.199 22.3711 197.287 22.248 197.334 22.0957C197.381 21.9668 197.48 21.832 197.633 21.6914C197.68 21.6445 197.756 21.6211 197.861 21.6211C197.943 21.6211 198.02 21.6328 198.09 21.6562Z" fill="black"/>
</svg>
